<svg xmlns="http://www.w3.org/2000/svg" viewBox="0 0 242.9 301.4"><path d="M924.5,650.7a112,112,0,0,1,11.3-6.2c3.8-1.8,7.8-3.5,11.7-5a192.7,192.7,0,0,1,24.5-7.6,218.5,218.5,0,0,1,51-6.3,209.3,209.3,0,0,1,51.1,5.9,178.7,178.7,0,0,1,24.5,7.8c3.9,1.6,7.8,3.3,11.7,5.2a120.7,120.7,0,0,1,11.1,6.2l-12.4-2.5-12.3-2.3c-8.2-1.4-16.4-2.7-24.6-3.6a402.4,402.4,0,0,0-49-2.7,447.9,447.9,0,0,0-49.1,3.1c-8.2.9-16.4,2.1-24.7,3.4S932.9,648.9,924.5,650.7Z" transform="translate(-878.6 -349.3)" fill="#e6e7e7"/><path d="M1120.1,443.6c-2.1-.8-5.2.2-7.5,1V446c-1.4-1-1.9,1.3-3.4,1.4-5.3.2-10.2.9-15.8,1-1.6-2.9-2-5.1-3-8.9-1.8-2.1-5.3-2.6-7.1-4.7s-.7-2.5-1.5-3.4c-2.4-2.6-7.3-3.9-6.8-8.1-2.6-2.2-3.4-6-5.6-8.5.7-2.7-1.6-4.3,0-7.5a13.6,13.6,0,0,1-4.2-4.7c-3.1.7-2.5-2-4.5-2.4s-.3-4.9-2.2-5.8c.5-.4.3-1.4.3-2.3-2.3-2.6-3.1-5.3-4.9-8.8-3.5-1-6.3-4.4-4.8-7.9-4.3-3.7-11.2.5-17-.6-1.4-.3-2.7-1.8-4.1-2.1s-4.2.3-6,.7c.1-3.2-3.5-3-6-3.7s-2.5-1.3-4.2-1.4-6.2.6-6.8,2.7,3,5.6.4,7.5c-1.8-1.9-6.4-2.9-12-2.4-1.4-1.6-.2-3.7-.4-6.1a92.2,92.2,0,0,0-13.2-.6c-.8-2.7-3.9-3.2-6.7-4.1,1-.5.5-2.3,1.1-3.1a7.2,7.2,0,0,0,3.8-1.3c.4-3-1.5-4-3-3.4.4-1.2,2.6-2.6,1.1-4.4-6.9-1.3-11.3,3-17.7,1.3-.7,1.8-9.3-.6-14.3,0-1.8.3-3.1,1.1-4.5.4a11.9,11.9,0,0,0-2.6,3.3,96,96,0,0,1-17,.7c-1.7,1.8-1.3,5.6-5.2,5.5.1,2.5-1.9,4.3-4.5,3.3-.1,1-1.1,1.9-2.7,2.4-.9,5.9-1.7,15.2-11.2,14.9v2.8c-3.1.2-2.1,2.3-4.6,2.7.4,2.8-1.6,3.5-4.1,3.7-.2,2-2.9,1.9-3.4,4.4s1.2,7.5,0,11.5c-4.3,3.3-1.4,15.6-2.2,23.1a11.6,11.6,0,0,0-3.4,2.7c-.9,5.8,3.9,6.4,4.9,10.5.9.2.8-.6,1.8-.3.1,2.8,2.8,3.1,4.2,4.7.1,3.7,4.3,5.1,3,8.9,1.5,4.5,8.3,4.4,12.8,6.4-.2,2.4,2.4,2.3,3.4,3.7s.3,1.5.3,2.4a38.1,38.1,0,0,0,5.7.6c2-.9,4-1.6,5.4-2.9s1.7-.8,3.1-.7c4.1-2.8,11.8-2.4,17.8-2.2a9.2,9.2,0,0,1,3-.3V466c1.3-.8,2.8-.2,3.9.4h.7c.8-1.7,5.8-1.2,7.7-.5a2.1,2.1,0,0,1,2.4.8c1.6.3,4.4.2,4.7,1.3,3.7.2,6.6,2.6,11,2.7,1.1-1.1,2.3-.4,2.9-1.3s-.1.2.1.7c.9-1.3,2.1-1,4.1-1.5s2.6-2,4.3-2.7,1.1-.2,1.6-.4c2.7-.9,5-3.3,8.4-1.9s6.6,6.8,8.3,11.6c1.2,1.3,2.1,2.9,3.8,3.7,1.9,2.3,1,6.3,1.8,10,.3,1.4.4,3.3.7,5.4s1.6,7.1-.2,10.3c.2,3.8,2.3,5.5,4.4,7.9s4.7,4.1,7.2,6.3c1.2.4,2.8,1.2,2.9,2.1s-1.4.5-1.7.5c-3.1-.2-9.9-2.6-11.2-5.8,1.4,3.6,5.4,6.1,8.4,8.7,1.3.8,3,1.1,3.2,2.9a11.4,11.4,0,0,1-3.2,0c-1.4-.4-2.3-1.6-3.5-2.3s-3.6-1-4.6-2.4c1,4.4,3.1,8.9,5,13.1a33.7,33.7,0,0,1,2.6,7.2c.4,1.5,1,2.9.4,4.2,1.2,3.4.1,6.2.4,9.7a9.6,9.6,0,0,1-3.4,3.2c-2.5,1.8-6.6,3.8-10.4,3.4-.2-1.6,1.1-1.8,1.9-2.4s-1.3-1.7-1.3-3.2c1.9-2.4,4.7,1.8,6.8-1.1a30.3,30.3,0,0,0,1.6-4.2,13.5,13.5,0,0,0-1.1-5c-1-2.7-2.8-5.4-4.1-8.1a25.5,25.5,0,0,0-1.3-2.9c-1.2-2.2-2.8-4.5-4.2-7s-2.8-4.3-3.8-6.9-1.4-7.5-2-11.6c-1.3,1.8-3.1,6.8-5.8,4.2.4-2.2,1.7-5.1.7-6.6s-4.4-2-6.5-3.3-1.6-1.6-2.7-2.1c-.8,1.5.2,3.4-.4,5a4.4,4.4,0,0,1-1.3,2,10.6,10.6,0,0,0,1.1,2.1c-.9,4.7,1.7,4.3,1.8,8.2-1.3.2-1.4-.5-2.6-.4,2.2,4.1,5.9,7.3,4.1,14.3-2-.3-1.6,1.7-4.1,1-1.3,3.4-3.1,8.3-3.5,12.9.1,2,.3,4,.4,5.8a8,8,0,0,0,3.5,5c-.8,2.6,1.7,2.1,1.9,3.8.3,4.4,1.5,6.7,3.4,10.1-2.4,8.1,4.8,10.4,3.3,18.7,6.2,1.3,7.1,7,8.3,12.2-.4,1.5-2.1,1.7-2.2,3.4s5.4,2.8,6,6.1c2.3.3,4.4,1.8,7.1.7.5-.5.4-1.5.4-2.4,3.4-2.2,10.1.3,14.3-.7s6.1-3.6,8.6-4.7a22.7,22.7,0,0,0,5.3-3.1,10.9,10.9,0,0,1,1.1-2.7c2.4.3,2.6-4.2,6.1-4.1.7-4.9,6.8-6.1,7.5-10.8.3-2.2-1-4.2-.4-7.5,2.4-2.2,5.9-1.5,7.9-3.7s.4-8.4,1.1-14.2c-.5-.3-2.1-.4-2.2-1.4s3-1.3,4.9-2.4.6-1.4,1.5-2,2.2-.5,3-1c2.4-1.7,4.6-4.4,6.4-6.1s4-2.4,5.2-3.8-.2-1,0-1.3c1.3-2.1,3.7-2.7,3.8-4.1s-2-2.8-3-4.4-.2-2.1-1.1-2.7c2-4.3-1.8-6.6-.8-10.9-.3-.9-1.5-1.1-2.3-1.7a49.3,49.3,0,0,0-.3-6.7c-.4-3-2.7-4.7-2.3-6.8a4.2,4.2,0,0,1,4.2-3.1v-2c3.4-.5,3.3-4.2,6.3-5.1v-2.7c3-1.1,3.8-4.1,5.7-6.1,4-.7,6-3.2,10.5-3.4,1.4-4,6.6-7.1,6.8-13.2.5-1.1,1.7-1.4,2.6-2.1C1114.3,459.4,1121,453.3,1120.1,443.6ZM968.2,405.9a9.4,9.4,0,0,0-1.2.9,7.1,7.1,0,0,1-1.4,1l-1.7.5-1.7.5a11.5,11.5,0,0,1-3.2.7,1.9,1.9,0,0,1-.2.8c0,.3-.1.5-.1.8a1.4,1.4,0,0,0,0,.9v.9l-.3.8c-.1.3-.1.6-.2,1a3.4,3.4,0,0,0,.1,1v1.2a3.7,3.7,0,0,1-.1,1.1,2.1,2.1,0,0,0,0,1.1,4.3,4.3,0,0,0,.2,1.2l.3,1.2v2.6a7.1,7.1,0,0,0,.1,1.4,6.6,6.6,0,0,1,.1,1.4,11.5,11.5,0,0,0-.1,2,26.2,26.2,0,0,0,.1,2.7c.1,1.1.2,2.1.3,3.3s.3,2.3.4,3.5.2,2.2.3,3.3a25.3,25.3,0,0,0,.3,3c.1,1,.2,1.7.3,2.4a6.4,6.4,0,0,1,.3,1.5,4.6,4.6,0,0,1-.3,2.2,8.8,8.8,0,0,1-1.2,2.4,2.6,2.6,0,0,1-.9.9l-1,.8a2.2,2.2,0,0,0-.9.7,1.2,1.2,0,0,1-.9.4l-.8-.2-.6-.4h-1l-.3-.4a.7.7,0,0,0-.1-.5.8.8,0,0,0-.4-.4l-.4-.4c-.2-.2-.2-.5-.3-.8v-.7l-.3-1.3a5.9,5.9,0,0,1,.1-1.1v-.4a3.6,3.6,0,0,0,.4-.9c0-.3.1-.6.1-1a4.5,4.5,0,0,1,.1-1.1,9.3,9.3,0,0,1,.4-1.3l.3-1.2a4.9,4.9,0,0,0,.1-1.2v-1a4.4,4.4,0,0,1,.1-.9c.1-.5.2-1.1.3-1.9s.1-1.6.1-2.5.1-2,.2-3.1.3-2.3.4-3.5.4-2.5.5-3.7a24.3,24.3,0,0,0,.3-3.8c.1-1.2.2-2.5.4-3.7s.1-2.2.1-3a5.1,5.1,0,0,0-.2-1.3c-.1-.5-.1-.9-.2-1.3v-1.3a4.5,4.5,0,0,0,.1-1.1l-.3-.8c-.1-.3-.2-.5-.1-.7s-.5-.2-.8-.4a2,2,0,0,0-.8-.4l-1-.3a1.6,1.6,0,0,1-.9-.3l-2-.9-1-.3-1-.4-.9-.7-1-.7a3.1,3.1,0,0,0-1-.5l-.9-.5-1.3-1.3-1-1.1a9.2,9.2,0,0,0-1.4-2.3,3.9,3.9,0,0,0-1-.8l-.9-.7a4.6,4.6,0,0,1-.7-.7l-.5-.7-.7-.9.3-.5c.2-.2.2-.4.3-.6v-.5a.6.6,0,0,1-.1-.4.5.5,0,0,1,.3-.5l.2-.3a.8.8,0,0,0-.1-.4h.3l.7-.4,1-.2,1.2-.3,1.1.3.9.6c0,.2.1.3.1.5a.8.8,0,0,0,.2.5.8.8,0,0,0,.4.4c.2.2.4.3.4.4a4.6,4.6,0,0,1,.3.9,5.8,5.8,0,0,0,.6,1.5,13.6,13.6,0,0,0,1.2,1.7l1.5,1.9a23,23,0,0,0,3.6,3.5,9.2,9.2,0,0,0,4.8,1.4h4.5l1.7-.3,1.3-.3a6.8,6.8,0,0,0,1.9-.5l.7-.6h.3l.5-.3c.2-.1.3-.3.5-.6a1.9,1.9,0,0,1,.6-.7l.9-.7,1-.7a3.6,3.6,0,0,0,.7-1l.8-1.1.7-.8.6-.9.3-.9.3-.9a1.2,1.2,0,0,1,.4-.8c.1-.3.3-.5.3-.8a1.5,1.5,0,0,0,.1-.7.8.8,0,0,1,.2-.5l.8-.9.7-.6.8-.7.8.2h.8l.5.2h.4l1,.3a3.4,3.4,0,0,1,.4,1,6.1,6.1,0,0,1,.3,1.7,15.5,15.5,0,0,1-1.7,2.9l-3,3.8c-.6.6-1.1,1.3-1.7,1.8l-1.5,1.6-1.2,1.3-.7.8-.7.3Zm40.4,32.5-.7.3-.8.3-1,.5-.9.4h-1.7a3.7,3.7,0,0,1-1.4-.2c-.3-.1-.4-.3-.6-.5l-.4-.5-.5-.5-.3-.3a.9.9,0,0,1-.1-.5v-.9c0-.3-.1-.7-.1-1s.1-.6.1-.9a3.4,3.4,0,0,0,.1-1,2.8,2.8,0,0,0-.1-.9,3.4,3.4,0,0,1-.1-1,2.8,2.8,0,0,1,.1-.9c0-.3.1-.7.1-1l-.6-1.6c-.1-.5-.3-1-.4-1.5a10.5,10.5,0,0,1-.4-1.7l-.3-1.6-.6-1.6-.6-1.6-.3-1.6a9.4,9.4,0,0,0-.4-1.6,4.9,4.9,0,0,0-.4-1.1l-.3-1-.3-1.1c-.1-.3-.1-.7-.2-1.1l-.4-1a6.8,6.8,0,0,1-.6-2.2,5.2,5.2,0,0,0-.2-1.1,1.3,1.3,0,0,0-.3-.8l-.3-.8c-.1-.2-.1-.5-.2-.8a2.2,2.2,0,0,0-.1-.8l-.3-.8a1.1,1.1,0,0,1-.3-.8c-.1-.2-.1-.5-.2-.8a2.8,2.8,0,0,0-.1-.9l-.4.6-.5.8-.5,1-1.2,2.5-1.5,3.1-.4.9a10.4,10.4,0,0,1-.4,1l-.5.9-.4.8a3.6,3.6,0,0,0-.4.9,1.1,1.1,0,0,1-.3.8,1.6,1.6,0,0,1-.4.7,1.4,1.4,0,0,0-.2.6,1.3,1.3,0,0,0-.3.8l-.4.8a3,3,0,0,1-.4.8l-.5.9a10.4,10.4,0,0,0-.4,1l-.3,1-.6.9a9.3,9.3,0,0,1-.5,1l-.6,1.4a5.9,5.9,0,0,1-.6,1.4,4.7,4.7,0,0,1-.7,1.2l-.5,1.1a4.2,4.2,0,0,0-.4,1l-.3.7a2.1,2.1,0,0,1-.4.6,1.3,1.3,0,0,0-.1.6v.5c0,.2-.1.4-.1.6s-.1.4-.2.5v1.2a.8.8,0,0,1-.2.5,1.3,1.3,0,0,0-.1.6,1,1,0,0,0-.4.5c-.1.1-.2.3-.4.4l-.4.5c-.2.1-.3.3-.4.4l-.4.5-.3.6-.4.4a1,1,0,0,0-.4.5h-3.1l-.3-.4c-.2,0-.3-.2-.4-.3s-.1-.2-.2-.4-.1-.2-.2-.4l-.3-.3-.3-.3a.8.8,0,0,1-.2-.4c-.1-.1-.1-.3-.2-.4a.8.8,0,0,0,.1-.4.9.9,0,0,1,.1-.5.8.8,0,0,1,.2-.4l.3-.4a.4.4,0,0,0,0-.5.6.6,0,0,1,.1-.4l.3-.4.2-.4.5-.5.5-.6.6-.4.6-.4a1.2,1.2,0,0,0,.5-.5c.2-.2.3-.4.5-.5l.6-.5.6-.4.6-1.3.6-1.3c.2-.5.5-.9.7-1.3s.5-.9.7-1.3l.6-1.3.6-1.4.7-1.2.7-1.3,1.5-3,.7-1.5c.3-.4.5-.9.8-1.4l.7-1.5a10.1,10.1,0,0,1,.7-1.5,10.9,10.9,0,0,1,.8-1.5,6.4,6.4,0,0,0,.8-1.4,6.7,6.7,0,0,0,.6-1.2,5,5,0,0,1,.5-1.3,4.1,4.1,0,0,1,.7-1.1,7.5,7.5,0,0,0,.7-1.2l.6-1.2a5,5,0,0,1,.5-1.3l.6-1.2.7-1.2a4.3,4.3,0,0,0,.1-.5l.2-.5a.8.8,0,0,1,.4-.4l.3-.5.2-.5a1.4,1.4,0,0,1,.2-.6l.5-.9a5.6,5.6,0,0,0,.5.8l.5.8a3.6,3.6,0,0,1,.4.9l.5.9.5.7a2.1,2.1,0,0,1,.6.8,3.6,3.6,0,0,1,.4.9,3.6,3.6,0,0,0,.4.9l.3.7.3.7c0,.2.1.5.1.7a1.5,1.5,0,0,0,.1.7,2.5,2.5,0,0,1,.2.7,2.5,2.5,0,0,1,.2.7,2.2,2.2,0,0,1,.1.8c0,.2.1.5.1.7s.4.5.4.8l.4,1c.1.3.2.7.4,1.2l.6,1.5a7.7,7.7,0,0,1,.7,1.6l.6,2a14.6,14.6,0,0,0,.7,1.9l.3.9a3,3,0,0,1,.4.8l.3.9a1.6,1.6,0,0,0,.3.9,2,2,0,0,0,.4.8l.4.9c.1.2.1.5.2.8a2.9,2.9,0,0,0,.2.9,11.1,11.1,0,0,1,.7,1.6l.6,1.5a12.1,12.1,0,0,1,.5,1.4c.2.5.3.9.5,1.3a10.4,10.4,0,0,0,.4,1,5.9,5.9,0,0,1,.4.8,6.4,6.4,0,0,0,.2.7v.3a9.1,9.1,0,0,1,.4,1.6,4.3,4.3,0,0,1,.2,1.1,3.7,3.7,0,0,0,.1,1.1c.1.4.1.8.2,1.1l.3.8v.9Zm26.9-52.1-.6.5a.8.8,0,0,0-.4.4l-.5.4-.7.3h-.8l-.4.3-.3.2-.5.3-.5.2-.6.4-.5.4-.6.3-.6.4-1.4,1a5.5,5.5,0,0,1-1.4.9,1.8,1.8,0,0,1-.7.5l-.6.5-.7.3-.6.3a5,5,0,0,0-1.2.8,5.2,5.2,0,0,1-1,1.1l-1,1.1-1,1.2a3.1,3.1,0,0,0-.6,1.3l-.5,1.2a13.3,13.3,0,0,0-.5,1.9l1.3,2.1c.4.6.7,1.3,1.2,2s.9,1.6,1.4,2.4l1.9,2.6a28.3,28.3,0,0,1,2,2.8,29,29,0,0,1,1.9,2.9,29,29,0,0,0,1.9,2.9,8.6,8.6,0,0,0,1,1.6l.9,1.4a10.1,10.1,0,0,1,.7,1.5l.6,1.3.6,1.1c.3.3.4.6.6.8a6.4,6.4,0,0,0,.2.7.4.4,0,0,0,.1.3,7.3,7.3,0,0,1,.4,3.1,3.1,3.1,0,0,1-.6,1.3,6.3,6.3,0,0,1-.7,1.2,13.4,13.4,0,0,1-.6,1.2,4.4,4.4,0,0,1-.6,1l-.6.7-.5.4-.5.9a7.7,7.7,0,0,1-1,1.5l-1.5,1.8-1.8,1.9-1.6,2.1-1.5,1.9a8.1,8.1,0,0,1-2.2,1.7,3.5,3.5,0,0,1-1.2.2l-1.3-.2-1.3-.4a1.6,1.6,0,0,1-.8-.8l-.3-.4-.3-.3c-.1-.1-.1-.3-.2-.8s0-.8.1-.8.2-.3.5-.5l.7-.5.4-.6.6-.9,1-.9a12.7,12.7,0,0,0,1-1.2,7.3,7.3,0,0,0,.9-1.3l.9-1.4a13.4,13.4,0,0,1,1.1-1.4l1-1.4a3.1,3.1,0,0,0,.5-1l.6-1,.7-.8.6-.8a2,2,0,0,0,.4-.8l.3-.7q.6-1.2.6-.9a2.2,2.2,0,0,0-.1-.8c-.1-.3-.1-.5-.2-.8a8.4,8.4,0,0,0-.4-1.4l-.6-.9-.3-.3a6.5,6.5,0,0,1-1.3-1.6,11.6,11.6,0,0,1-1.3-2,23.6,23.6,0,0,0-1.5-2.5l-2-2.7-2-3c-1.3-1.9-2.5-4-3.7-6.1a5.4,5.4,0,0,1-.7-1.3,7.5,7.5,0,0,1-.7-1.2l-.9-2.2c-.5-1.1-.7-1.8-.8-1.9a3.8,3.8,0,0,1,0-1.5v-.6a1.5,1.5,0,0,1,.1-.7l.3-.6a2.1,2.1,0,0,1,.4-.6,6.4,6.4,0,0,0,.2-.7.9.9,0,0,1,.3-.6,1.2,1.2,0,0,1,.5-.5l.5-.5.8-1.1.9-1,1.1-.9,1-.7.9-.8a2.7,2.7,0,0,1,.8-.7l.7-.5.6-.4.9-.8,1.2-1,1.6-.9,1.8-.9,1.7-1.1,1.8-.8a6.8,6.8,0,0,1,3.2-.7h2.1c.3.1.6.5,1,1l.7,1c0,.2.1.4.1.6s.1.4.2.6Z" transform="translate(-878.6 -349.3)" fill="#e6e7e7" fill-rule="evenodd"/><path d="M1120.1,440.1c-2.1-.8-5.2.2-7.5,1v1.4c-1.4-1-1.9,1.3-3.4,1.3-5.3.3-10.2,1-15.8,1.1-1.6-2.9-2-5.1-3-8.9-1.8-2.1-5.3-2.7-7.1-4.7s-.7-2.5-1.5-3.4c-2.4-2.6-7.3-3.9-6.8-8.1-2.6-2.2-3.4-6-5.6-8.5.7-2.7-1.6-4.3,0-7.5a13.6,13.6,0,0,1-4.2-4.7c-3.1.7-2.5-2.1-4.5-2.4s-.3-4.9-2.2-5.8c.5-.4.3-1.4.3-2.3-2.3-2.6-3.1-5.3-4.9-8.9-3.5-.9-6.3-4.3-4.8-7.8-4.3-3.7-11.2.5-17-.6-1.4-.3-2.7-1.9-4.1-2.1a12.6,12.6,0,0,0-6,.7c.1-3.2-3.5-3.1-6-3.7s-2.5-1.3-4.2-1.4-6.2.6-6.8,2.7,3,5.6.4,7.5c-1.8-1.9-6.4-2.9-12-2.4-1.4-1.6-.2-3.7-.4-6.1a108.5,108.5,0,0,0-13.2-.7c-.8-2.6-3.9-3.1-6.7-4,1-.5.5-2.3,1.1-3.1a7.2,7.2,0,0,0,3.8-1.3c.4-3.1-1.5-4-3-3.4.4-1.3,2.6-2.6,1.1-4.4-6.9-1.3-11.3,3-17.7,1.3-.7,1.8-9.3-.6-14.3,0-1.8.2-3.1,1.1-4.5.4a11.9,11.9,0,0,0-2.6,3.3,106.5,106.5,0,0,1-17,.7c-1.7,1.8-1.3,5.6-5.2,5.5.1,2.5-1.9,4.3-4.5,3.3-.1,1-1.1,1.9-2.7,2.4-.9,5.9-1.7,15.2-11.2,14.9v2.7c-3.1.3-2.1,2.4-4.6,2.8.4,2.8-1.6,3.5-4.1,3.7-.2,2-2.9,1.9-3.4,4.4s1.2,7.5,0,11.5c-4.3,3.3-1.4,15.6-2.2,23.1a10.2,10.2,0,0,0-3.4,2.7c-.9,5.8,3.9,6.4,4.9,10.5.9.2.8-.6,1.8-.3.1,2.7,2.8,3.1,4.2,4.7.1,3.7,4.3,5,3,8.9,1.5,4.5,8.3,4.4,12.8,6.4-.2,2.4,2.4,2.3,3.4,3.7s.3,1.5.3,2.4a38.1,38.1,0,0,0,5.7.6c2-1,4-1.6,5.4-2.9s1.7-.8,3.1-.7c4.1-2.8,11.8-2.4,17.8-2.2a7.1,7.1,0,0,1,3-.3v-.6c1.3-.8,2.8-.2,3.9.4h.7c.8-1.7,5.8-1.2,7.7-.6a2.3,2.3,0,0,1,2.4.8c1.6.3,4.4.3,4.7,1.3,3.7.2,6.6,2.6,11,2.8,1.1-1.1,2.3-.4,2.9-1.3s-.1.2.1.6c.9-1.2,2.1-.9,4.1-1.4s2.6-2,4.3-2.8,1.1-.1,1.6-.3c2.7-.9,5-3.3,8.4-1.9s6.6,6.8,8.3,11.6c1.2,1.3,2.1,2.9,3.8,3.7,1.9,2.3,1,6.3,1.8,10,.3,1.4.4,3.3.7,5.4s1.6,7.1-.2,10.3c.2,3.8,2.3,5.5,4.4,7.9s4.7,4,7.2,6.3c1.2.4,2.8,1.2,2.9,2.1s-1.4.5-1.7.5c-3.1-.2-9.9-2.6-11.2-5.8,1.4,3.6,5.4,6.1,8.4,8.7,1.3.7,3,1,3.2,2.9a11.4,11.4,0,0,1-3.2,0c-1.4-.4-2.3-1.6-3.5-2.3s-3.6-1-4.6-2.4c1,4.4,3.1,8.9,5,13.1a33.7,33.7,0,0,1,2.6,7.2c.4,1.5,1,2.9.4,4.2,1.2,3.4.1,6.2.4,9.7a9.6,9.6,0,0,1-3.4,3.2c-2.5,1.7-6.6,3.8-10.4,3.4-.2-1.6,1.1-1.8,1.9-2.4s-1.3-1.7-1.3-3.2c1.9-2.4,4.7,1.8,6.8-1.1a27.3,27.3,0,0,0,1.6-4.3,13.5,13.5,0,0,0-1.1-4.9c-1-2.8-2.8-5.4-4.1-8.1a25.5,25.5,0,0,0-1.3-2.9c-1.2-2.2-2.8-4.5-4.2-7s-2.8-4.3-3.8-6.9-1.4-7.5-2-11.6c-1.3,1.8-3.1,6.7-5.8,4.2.4-2.2,1.7-5.1.7-6.6s-4.4-2-6.5-3.3-1.6-1.6-2.7-2.1c-.8,1.5.2,3.4-.4,5a4.4,4.4,0,0,1-1.3,2,14.3,14.3,0,0,0,1.1,2.1c-.9,4.7,1.7,4.3,1.8,8.2-1.3.2-1.4-.5-2.6-.4,2.2,4,5.9,7.3,4.1,14.3-2-.3-1.6,1.6-4.1,1-1.3,3.4-3.1,8.3-3.5,12.9.1,2,.3,4,.4,5.8a8,8,0,0,0,3.5,5c-.8,2.6,1.7,2.1,1.9,3.8.3,4.4,1.5,6.6,3.4,10.1-2.4,8.1,4.8,10.4,3.3,18.7,6.2,1.3,7.1,7,8.3,12.2-.4,1.4-2.1,1.7-2.2,3.4s5.4,2.7,6,6.1c2.3.2,4.4,1.8,7.1.7.5-.5.4-1.5.4-2.4,3.4-2.2,10.1.2,14.3-.7s6.1-3.6,8.6-4.7a22.7,22.7,0,0,0,5.3-3.1,9.5,9.5,0,0,1,1.1-2.7c2.4.3,2.6-4.2,6.1-4.1.7-4.9,6.8-6.1,7.5-10.8.3-2.2-1-4.2-.4-7.5,2.4-2.2,5.9-1.5,7.9-3.7s.4-8.4,1.1-14.3c-.5-.2-2.1-.3-2.2-1.3s3-1.3,4.9-2.4.6-1.4,1.5-2,2.2-.5,3-1c2.4-1.7,4.6-4.4,6.4-6.1s4-2.4,5.2-3.8-.2-1,0-1.3c1.3-2.1,3.7-2.7,3.8-4.1s-2-2.8-3-4.4-.2-2.1-1.1-2.7c2-4.3-1.8-6.6-.8-10.9-.3-.9-1.5-1.1-2.3-1.7a51.6,51.6,0,0,0-.3-6.8c-.4-2.9-2.7-4.7-2.3-6.7a4.1,4.1,0,0,1,4.2-3.1v-2c3.4-.5,3.3-4.3,6.3-5.1v-2.7c3-1.1,3.8-4.1,5.7-6.1,4-.7,6-3.2,10.5-3.4,1.4-4,6.6-7.1,6.8-13.3.5-1,1.7-1.4,2.6-2C1114.3,455.9,1121,449.8,1120.1,440.1ZM968.2,402.3l-1.2,1a7.1,7.1,0,0,1-1.4,1l-1.7.5-1.7.4a13,13,0,0,1-3.2.8,2.4,2.4,0,0,1-.2.8c0,.3-.1.5-.1.8a1.4,1.4,0,0,0,0,.9v.8l-.3.9c-.1.3-.1.6-.2,1a3.4,3.4,0,0,0,.1,1v1.1a4.5,4.5,0,0,1-.1,1.2,2.1,2.1,0,0,0,0,1.1,5,5,0,0,0,.2,1.2l.3,1.2v2.5a7.6,7.6,0,0,0,.1,1.5,6.6,6.6,0,0,1,.1,1.4,11.5,11.5,0,0,0-.1,2,26.2,26.2,0,0,0,.1,2.7c.1,1.1.2,2.1.3,3.3s.3,2.3.4,3.5.2,2.2.3,3.3a25.3,25.3,0,0,0,.3,3q.1,1.4.3,2.4a6.4,6.4,0,0,1,.3,1.5,4.6,4.6,0,0,1-.3,2.2,8.8,8.8,0,0,1-1.2,2.4,7.6,7.6,0,0,1-.9.9l-1,.7a3.6,3.6,0,0,0-.9.8,1.2,1.2,0,0,1-.9.4,1,1,0,0,1-.8-.3l-.6-.3h-1l-.3-.5a.6.6,0,0,0-.1-.4.8.8,0,0,0-.4-.4,1,1,0,0,1-.4-.5c-.2-.2-.2-.4-.3-.7v-.7a8.7,8.7,0,0,1-.3-1.4,5.8,5.8,0,0,1,.1-1v-.5a3,3,0,0,0,.4-.8c0-.3.1-.6.1-1a4.5,4.5,0,0,1,.1-1.1,6.5,6.5,0,0,1,.4-1.3l.3-1.3a4.5,4.5,0,0,0,.1-1.1v-1a4.4,4.4,0,0,1,.1-.9c.1-.5.2-1.2.3-1.9s.1-1.6.1-2.5.1-2,.2-3.1.3-2.3.4-3.5.4-2.5.5-3.7a24.3,24.3,0,0,0,.3-3.8c.1-1.2.2-2.5.4-3.7s.1-2.2.1-3a6.8,6.8,0,0,0-.2-1.4c-.1-.4-.1-.8-.2-1.3v-1.2a4.5,4.5,0,0,0,.1-1.1l-.3-.8c-.1-.3-.2-.5-.1-.7s-.5-.2-.8-.4a2,2,0,0,0-.8-.4l-1-.3a1.6,1.6,0,0,1-.9-.3l-2-.9-1-.3-1-.4-.9-.7-1-.7a3.1,3.1,0,0,0-1-.5l-.9-.5-1.3-1.3-1-1.1a9.2,9.2,0,0,0-1.4-2.3,3.9,3.9,0,0,0-1-.8l-.9-.7a2.7,2.7,0,0,1-.7-.8l-.5-.7-.7-.8.3-.5c.2-.2.2-.4.3-.6V390a.7.7,0,0,1-.1-.5.5.5,0,0,1,.3-.4l.2-.3a.8.8,0,0,0-.1-.4l.3-.2.7-.3,1-.2,1.2-.3,1.1.3.9.6c0,.2.1.3.1.5a.8.8,0,0,0,.2.5.8.8,0,0,0,.4.4c.2.2.4.3.4.4a4.6,4.6,0,0,1,.3.9,7.7,7.7,0,0,0,.6,1.5,13.6,13.6,0,0,0,1.2,1.7l1.5,1.9a18.3,18.3,0,0,0,3.6,3.4A8.5,8.5,0,0,0,955,401h4.5l1.7-.3,1.3-.3a6.8,6.8,0,0,0,1.9-.5l.7-.6h.3l.5-.3c.2-.1.3-.3.5-.6a1.9,1.9,0,0,1,.6-.7l.9-.7,1-.7a3.6,3.6,0,0,0,.7-1l.8-1.1.7-.8.6-.9.3-.9.3-.9a1.2,1.2,0,0,1,.4-.8,4.1,4.1,0,0,0,.3-.8,1.7,1.7,0,0,0,.1-.7.8.8,0,0,1,.2-.5,3.6,3.6,0,0,1,.8-.9l.7-.6c.4-.5.7-.7.8-.7l.8.2h1.3l.4.2,1,.3a2.5,2.5,0,0,1,.4,1,5.5,5.5,0,0,1,.3,1.7,15.5,15.5,0,0,1-1.7,2.9l-3,3.8-1.7,1.8-1.5,1.6-1.2,1.3-.7.8-.7.3Zm40.4,32.6-.7.3-.8.3-1,.5-.9.4h-1.7a3.7,3.7,0,0,1-1.4-.2l-.6-.5-.4-.5-.5-.5-.3-.4c-.1-.1-.1-.2-.1-.4v-.9c0-.3-.1-.7-.1-1s.1-.6.1-.9a3.8,3.8,0,0,0,.1-1,2.8,2.8,0,0,0-.1-.9,3.4,3.4,0,0,1-.1-1,2.8,2.8,0,0,1,.1-.9c0-.3.1-.7.1-1l-.6-1.6c-.1-.5-.3-1-.4-1.6a7.5,7.5,0,0,1-.4-1.6l-.3-1.6-.6-1.6-.6-1.6-.3-1.6a9.4,9.4,0,0,0-.4-1.6,4.9,4.9,0,0,0-.4-1.1l-.3-1-.3-1.1c-.1-.4-.1-.7-.2-1.1l-.4-1a4.9,4.9,0,0,1-.4-1.1,3.6,3.6,0,0,1-.2-1.1,4.3,4.3,0,0,0-.2-1.1,1.3,1.3,0,0,0-.3-.8l-.3-.8c-.1-.2-.1-.5-.2-.8a1.9,1.9,0,0,0-.1-.8l-.3-.8a1.1,1.1,0,0,1-.3-.8c-.1-.2-.1-.5-.2-.8a2.8,2.8,0,0,0-.1-.9l-.4.6-.5.8a4.1,4.1,0,0,1-.5.9l-1.2,2.6-1.5,3.1-.4.9a10.4,10.4,0,0,1-.4,1l-.5.9-.4.8a3.6,3.6,0,0,0-.4.9,1.1,1.1,0,0,1-.3.8,1.6,1.6,0,0,1-.4.7,1.4,1.4,0,0,0-.2.6,1.3,1.3,0,0,0-.3.8l-.4.8-.4.8-.5.9a10.4,10.4,0,0,0-.4,1l-.3,1-.6.9c-.2.3-.3.7-.5,1l-.6,1.4a5.9,5.9,0,0,1-.6,1.4,7.5,7.5,0,0,1-.7,1.2l-.5,1.1a4.2,4.2,0,0,0-.4,1l-.3.7a2.1,2.1,0,0,1-.4.6,1.3,1.3,0,0,0-.1.6v.5c0,.2-.1.4-.1.6l-.2.5v1.2a.8.8,0,0,1-.2.5,1.3,1.3,0,0,0-.1.6,1,1,0,0,0-.4.5c-.1.1-.2.3-.4.4l-.4.5c-.2.1-.3.3-.4.4l-.4.5-.3.6-.4.4c-.2.1-.3.3-.4.4h-3.1l-.3-.3-.4-.3c0-.1-.1-.2-.2-.4s-.1-.3-.2-.4l-.3-.3-.3-.3c-.1-.2-.2-.3-.2-.4s-.1-.3-.2-.4a.8.8,0,0,0,.1-.4.9.9,0,0,1,.1-.5.8.8,0,0,1,.2-.4l.3-.4a.4.4,0,0,0,0-.5.9.9,0,0,1,.1-.5l.3-.3.2-.4.5-.5c.1-.3.3-.4.5-.6l.6-.4.6-.4a1.2,1.2,0,0,0,.5-.5c.2-.2.3-.4.5-.5l.6-.5.6-.4.6-1.3.6-1.4c.2-.4.5-.8.7-1.3s.5-.8.7-1.3l.6-1.3.6-1.3.7-1.2.7-1.3,1.5-3,.7-1.5.8-1.4.7-1.5a11.1,11.1,0,0,1,.7-1.6l.8-1.4a6.4,6.4,0,0,0,.8-1.4,6.7,6.7,0,0,0,.6-1.2,5,5,0,0,1,.5-1.3,7.5,7.5,0,0,1,.7-1.2,4.1,4.1,0,0,0,.7-1.1l.6-1.2a5,5,0,0,1,.5-1.3l.6-1.2.7-1.2a4.3,4.3,0,0,0,.1-.5l.2-.5.4-.5.3-.4.2-.5a1.4,1.4,0,0,1,.2-.6l.5-.9a5.6,5.6,0,0,0,.5.8l.5.8a3.6,3.6,0,0,1,.4.9l.5.9.5.7a2.1,2.1,0,0,1,.6.8,3.6,3.6,0,0,1,.4.9,3.6,3.6,0,0,0,.4.9l.3.7.3.6c0,.3.1.5.1.8a1.7,1.7,0,0,0,.1.7,2.5,2.5,0,0,1,.2.7,2.5,2.5,0,0,1,.2.7,2.2,2.2,0,0,1,.1.8c0,.2.1.5.1.7s.4.5.4.8a6.3,6.3,0,0,0,.4.9,9.3,9.3,0,0,0,.4,1.3l.6,1.5a7.7,7.7,0,0,1,.7,1.6l.6,1.9a11.8,11.8,0,0,0,.7,2l.3.9a2,2,0,0,1,.4.8l.3.9a1.6,1.6,0,0,0,.3.9,2,2,0,0,0,.4.8l.4.8c.1.3.1.6.2.9a1.9,1.9,0,0,0,.2.8c.3.6.5,1.2.7,1.7l.6,1.5a7.8,7.8,0,0,1,.5,1.4c.2.5.3.9.5,1.3a10.4,10.4,0,0,0,.4,1,5.9,5.9,0,0,1,.4.8,6.4,6.4,0,0,0,.2.7v.3a9.1,9.1,0,0,1,.4,1.6,4.3,4.3,0,0,1,.2,1.1,3.7,3.7,0,0,0,.1,1.1c.1.4.1.8.2,1.1l.3.8v.9Zm26.9-52.1-.6.5a.8.8,0,0,0-.4.4l-.5.4-.7.3h-.8l-.4.3-.3.2-.5.3-.5.2-.6.4-.5.4-.6.3-.6.3-1.4,1.1a5.5,5.5,0,0,1-1.4.9l-.7.5-.6.4-.7.4-.6.3a5,5,0,0,0-1.2.8,5.2,5.2,0,0,1-1,1.1l-1,1.1-1,1.2a3.1,3.1,0,0,0-.6,1.3l-.5,1.2a10.6,10.6,0,0,0-.5,1.9l1.3,2.1c.4.6.7,1.3,1.2,2s.9,1.6,1.4,2.4l1.9,2.6,2,2.7c.7,1,1.3,2,1.9,3a29,29,0,0,0,1.9,2.9,8.6,8.6,0,0,0,1,1.6l.9,1.4a10.1,10.1,0,0,1,.7,1.5l.6,1.3.6,1.1c.3.3.4.6.6.8a6.4,6.4,0,0,0,.2.7,1,1,0,0,0,.1.3,7.3,7.3,0,0,1,.4,3.1,3.8,3.8,0,0,1-.6,1.3l-.7,1.2-.6,1.2-.6,1-.6.7-.5.4-.5.9a7.7,7.7,0,0,1-1,1.5l-1.5,1.7-1.8,2-1.6,2.1-1.5,1.9a8.1,8.1,0,0,1-2.2,1.7l-1.2.2-1.3-.2-1.3-.4a2,2,0,0,1-.8-.8l-.3-.4-.3-.3c-.1-.1-.1-.3-.2-.8s0-.8.1-.8.2-.3.5-.5l.7-.5.4-.6.6-.9,1-1,1-1.1.9-1.3.9-1.4a13.4,13.4,0,0,1,1.1-1.4l1-1.4a3.1,3.1,0,0,0,.5-1l.6-1,.7-.8.6-.8.4-.8.3-.7q.6-1.2.6-.9a1.9,1.9,0,0,0-.1-.8c-.1-.3-.1-.5-.2-.8a8.4,8.4,0,0,0-.4-1.4l-.6-.9-.3-.3a6.5,6.5,0,0,1-1.3-1.6,11.6,11.6,0,0,1-1.3-2,23.6,23.6,0,0,0-1.5-2.5l-2-2.7-2-3c-1.3-1.9-2.5-4-3.7-6.1a8.3,8.3,0,0,1-.7-1.3,7.5,7.5,0,0,1-.7-1.2l-.9-2.2c-.5-1.1-.7-1.8-.8-1.9a3.8,3.8,0,0,1,0-1.5v-.6a1.5,1.5,0,0,1,.1-.7l.3-.6a2.1,2.1,0,0,1,.4-.6,6.4,6.4,0,0,0,.2-.7.9.9,0,0,1,.3-.6,1.2,1.2,0,0,1,.5-.5l.5-.5.8-1.1.9-1.1,1.1-.8,1-.7.9-.8a2.7,2.7,0,0,1,.8-.7l.7-.5.6-.5.9-.7a6.3,6.3,0,0,1,1.2-1l1.6-.9,1.8-.9,1.7-1.1,1.8-.9a8.3,8.3,0,0,1,3.2-.6h2.1c.3.1.6.4,1,1a3.7,3.7,0,0,1,.7,1c0,.2.1.4.1.6s.1.4.2.6Z" transform="translate(-878.6 -349.3)" fill="#4b5320" fill-rule="evenodd"/><path d="M924.5,647.2a95.2,95.2,0,0,1,11.3-6.2c3.8-1.8,7.8-3.5,11.7-5a192.7,192.7,0,0,1,24.5-7.6,218.5,218.5,0,0,1,51-6.3,214.2,214.2,0,0,1,51.1,5.8,194.1,194.1,0,0,1,24.5,7.9c3.9,1.6,7.8,3.3,11.7,5.2a120.7,120.7,0,0,1,11.1,6.2l-12.4-2.5-12.3-2.3c-8.2-1.4-16.4-2.7-24.6-3.6a402.4,402.4,0,0,0-49-2.7,447.9,447.9,0,0,0-49.1,3.1c-8.2.9-16.4,2.1-24.7,3.4S932.9,645.4,924.5,647.2Z" transform="translate(-878.6 -349.3)" fill="#dc7403"/></svg>