<svg xmlns="http://www.w3.org/2000/svg" viewBox="0 0 1716.9 301.4"><path d="M187.5,650.7a110.4,110.4,0,0,1,11.2-6.2c3.8-1.8,7.8-3.5,11.8-5a186.4,186.4,0,0,1,24.4-7.6,219.1,219.1,0,0,1,51-6.3,209.3,209.3,0,0,1,51.1,5.9,170.4,170.4,0,0,1,24.5,7.8c4,1.6,7.9,3.3,11.7,5.2a122.3,122.3,0,0,1,11.2,6.2l-12.5-2.5-12.3-2.3c-8.2-1.4-16.4-2.7-24.5-3.6a404,404,0,0,0-49.1-2.7,449.5,449.5,0,0,0-49.1,3.1c-8.2.9-16.4,2.1-24.6,3.4S195.8,648.9,187.5,650.7Z" transform="translate(-141.5 -349.3)" fill="#e6e7e7"/><path d="M383.1,443.6c-2.2-.8-5.2.2-7.6,1V446c-1.4-1-1.9,1.3-3.3,1.4-5.4.2-10.2.9-15.8,1-1.7-2.9-2.1-5.1-3-8.9-1.9-2.1-5.4-2.6-7.2-4.7s-.7-2.5-1.5-3.4c-2.3-2.6-7.3-3.9-6.8-8.1-2.5-2.2-3.4-6-5.6-8.5.7-2.7-1.6-4.3,0-7.5a12.4,12.4,0,0,1-4.1-4.7c-3.2.7-2.6-2-4.6-2.4s-.3-4.9-2.2-5.8c.5-.4.4-1.4.4-2.3-2.4-2.6-3.2-5.3-4.9-8.8-3.6-1-6.3-4.4-4.9-7.9-4.3-3.7-11.2.5-16.9-.6-1.5-.3-2.8-1.8-4.2-2.1s-4.1.3-6,.7c.1-3.2-3.4-3-6-3.7s-2.5-1.3-4.2-1.4-6.1.6-6.7,2.7,3,5.6.4,7.5c-1.9-1.9-6.5-2.9-12.1-2.4-1.4-1.6-.2-3.7-.4-6.1a90.8,90.8,0,0,0-13.1-.6c-.9-2.7-4-3.2-6.8-4.1,1-.5.5-2.3,1.1-3.1a6.9,6.9,0,0,0,3.8-1.3c.5-3-1.4-4-3-3.4.4-1.2,2.7-2.6,1.1-4.4-6.9-1.3-11.3,3-17.7,1.3-.7,1.8-9.2-.6-14.3,0-1.7.3-3.1,1.1-4.5.4a11.9,11.9,0,0,0-2.6,3.3,94.5,94.5,0,0,1-16.9.7c-1.8,1.8-1.3,5.6-5.3,5.5a3.2,3.2,0,0,1-4.5,3.3c-.1,1-1.1,1.9-2.6,2.4-1,5.9-1.7,15.2-11.3,14.9v2.8c-3,.2-2,2.3-4.5,2.7.4,2.8-1.7,3.5-4.2,3.7-.2,2-2.9,1.9-3.4,4.4s1.2,7.5,0,11.5c-4.3,3.3-1.4,15.6-2.2,23.1a13.1,13.1,0,0,0-3.4,2.7c-.9,5.8,3.9,6.4,4.9,10.5.9.2.8-.6,1.9-.3,0,2.8,2.8,3.1,4.1,4.7.1,3.7,4.4,5.1,3,8.9,1.6,4.5,8.4,4.4,12.8,6.4-.2,2.4,2.4,2.3,3.4,3.7s.4,1.5.4,2.4a35.5,35.5,0,0,0,5.7.6c1.9-.9,3.9-1.6,5.4-2.9s1.7-.8,3-.7c4.1-2.8,11.9-2.4,17.8-2.2a9.2,9.2,0,0,1,3-.3V466c1.3-.8,2.9-.2,4,.4h.7c.7-1.7,5.7-1.2,7.6-.5a2.3,2.3,0,0,1,2.5.8c1.5.3,4.3.2,4.6,1.3,3.8.2,6.7,2.6,11,2.7,1.1-1.1,2.4-.4,2.9-1.3s0,.2.2.7c.9-1.3,2-1,4-1.5s2.6-2,4.4-2.7,1.1-.2,1.6-.4c2.6-.9,5-3.3,8.4-1.9s6.5,6.8,8.2,11.6c1.2,1.3,2.2,2.9,3.9,3.7,1.8,2.3.9,6.3,1.7,10,.3,1.4.4,3.3.7,5.4s1.6,7.1-.2,10.3c.2,3.8,2.3,5.5,4.4,7.9s4.8,4.1,7.3,6.3c1.1.4,2.7,1.2,2.9,2.1s-1.4.5-1.8.5c-3.1-.2-9.9-2.6-11.2-5.8,1.5,3.6,5.4,6.1,8.4,8.7,1.3.8,3.1,1.1,3.3,2.9a12.2,12.2,0,0,1-3.3,0c-1.4-.4-2.3-1.6-3.5-2.3s-3.6-1-4.5-2.4c.9,4.4,3.1,8.9,5,13.1a40.2,40.2,0,0,1,2.6,7.2c.3,1.5.9,2.9.3,4.2,1.2,3.4.1,6.2.5,9.7a9.6,9.6,0,0,1-3.4,3.2c-2.5,1.8-6.7,3.8-10.5,3.4-.2-1.6,1.1-1.8,1.9-2.4s-1.3-1.7-1.3-3.2c1.9-2.4,4.7,1.8,6.8-1.1a21.4,21.4,0,0,0,1.6-4.2c.2-1.7-.6-3.6-1.1-5a77,77,0,0,0-4.1-8.1c-.5-1-.7-2-1.2-2.9s-2.9-4.5-4.2-7-2.9-4.3-3.9-6.9-1.4-7.5-1.9-11.6c-1.4,1.8-3.2,6.8-5.8,4.2.4-2.2,1.7-5.1.6-6.6s-4.4-2-6.5-3.3-1.6-1.6-2.7-2.1c-.8,1.5.2,3.4-.3,5a5.6,5.6,0,0,1-1.4,2,10.6,10.6,0,0,0,1.1,2.1c-.9,4.7,1.7,4.3,1.9,8.2-1.3.2-1.5-.5-2.7-.4,2.3,4.1,5.9,7.3,4.2,14.3-2.1-.3-1.7,1.7-4.2,1-1.3,3.4-3.1,8.3-3.5,12.9.1,2,.3,4,.4,5.8a8.9,8.9,0,0,0,3.5,5c-.8,2.6,1.7,2.1,1.9,3.8.4,4.4,1.6,6.7,3.4,10.1-2.4,8.1,4.8,10.4,3.4,18.7,6.2,1.3,7,7,8.2,12.2-.4,1.5-2.1,1.7-2.2,3.4s5.5,2.8,6,6.1c2.3.3,4.4,1.8,7.1.7.6-.5.4-1.5.4-2.4,3.4-2.2,10.1.3,14.3-.7s6.1-3.6,8.7-4.7a22.2,22.2,0,0,0,5.2-3.1,8.3,8.3,0,0,1,1.2-2.7c2.4.3,2.5-4.2,6-4.1.7-4.9,6.9-6.1,7.5-10.8.3-2.2-1-4.2-.4-7.5,2.5-2.2,5.9-1.5,7.9-3.7s.4-8.4,1.2-14.2c-.6-.3-2.1-.4-2.3-1.4s3.1-1.3,4.9-2.4.6-1.4,1.5-2,2.2-.5,3-1c2.4-1.7,4.6-4.4,6.4-6.1s4-2.4,5.3-3.8-.2-1,0-1.3c1.2-2.1,3.6-2.7,3.7-4.1s-1.9-2.8-3-4.4-.2-2.1-1.1-2.7c2.1-4.3-1.8-6.6-.8-10.9-.3-.9-1.4-1.1-2.2-1.7-.1-2.4-.1-4.4-.4-6.7s-2.7-4.7-2.3-6.8a4.2,4.2,0,0,1,4.2-3.1v-2c3.4-.5,3.3-4.2,6.4-5.1v-2.7c2.9-1.1,3.7-4.1,5.6-6.1,4.1-.7,6-3.2,10.5-3.4,1.4-4,6.6-7.1,6.8-13.2.5-1.1,1.7-1.4,2.6-2.1C377.2,459.4,383.9,453.3,383.1,443.6Zm-152-37.7-1.2.9a7.1,7.1,0,0,1-1.4,1l-1.6.5-1.8.5a11.5,11.5,0,0,1-3.2.7c0,.3-.1.6-.1.8a2.4,2.4,0,0,0-.2.8,1.4,1.4,0,0,0,0,.9,1.4,1.4,0,0,1,0,.9c-.1.3-.1.5-.2.8a3,3,0,0,0-.2,1,1.7,1.7,0,0,0,0,1c0,.4.1.8.1,1.2s-.1.8-.1,1.1a4.1,4.1,0,0,0-.1,1.1,4.3,4.3,0,0,0,.2,1.2l.3,1.2v2.6c0,.4.1.9.1,1.4a6.6,6.6,0,0,1,.1,1.4c0,.5-.1,1.2-.1,2a26.2,26.2,0,0,0,.1,2.7c.1,1.1.2,2.1.3,3.3s.3,2.3.5,3.5.2,2.2.2,3.3.2,2.1.3,3a13.3,13.3,0,0,0,.4,2.4,9.6,9.6,0,0,0,.3,1.5,4.6,4.6,0,0,1-.3,2.2l-1.2,2.4a2.8,2.8,0,0,1-1,.9l-1,.8-.9.7a1.2,1.2,0,0,1-.9.4l-.8-.2-.6-.4h-1a.8.8,0,0,1-.2-.4c-.1-.2-.1-.4-.2-.5l-.4-.4-.4-.4a1.9,1.9,0,0,1-.2-.8c0-.3-.1-.5-.1-.7l-.3-1.3a10.4,10.4,0,0,0,.1-1.1v-.4a3.6,3.6,0,0,0,.4-.9,3.1,3.1,0,0,0,.1-1,2.3,2.3,0,0,1,.2-1.1,3.5,3.5,0,0,1,.3-1.3,2.7,2.7,0,0,0,.3-1.2,4.9,4.9,0,0,0,.1-1.2v-1a4.4,4.4,0,0,1,.1-.9c.1-.5.2-1.1.3-1.9a19.3,19.3,0,0,0,.1-2.5c0-1,.1-2,.2-3.1s.3-2.3.5-3.5.3-2.5.4-3.7.3-2.5.4-3.8.2-2.5.3-3.7a16,16,0,0,0,.1-3,5.1,5.1,0,0,0-.2-1.3,6.2,6.2,0,0,1-.1-1.3,6.2,6.2,0,0,1-.1-1.3,4.5,4.5,0,0,0,.1-1.1c-.1-.3-.1-.6-.3-.8a2,2,0,0,1-.1-.7c-.3,0-.5-.2-.8-.4a2,2,0,0,0-.8-.4l-.9-.3a1.7,1.7,0,0,1-1-.3,14.3,14.3,0,0,1-1.9-.9l-1.1-.3-.9-.4-1-.7-.9-.7-1-.5-1-.5-1.3-1.3a3.8,3.8,0,0,1-.9-1.1,9.1,9.1,0,0,0-1.5-2.3,3.9,3.9,0,0,0-1-.8l-.9-.7-.7-.7a1.8,1.8,0,0,0-.5-.7l-.7-.9.3-.5a.9.9,0,0,0,.3-.6.4.4,0,0,0,0-.5.6.6,0,0,1-.1-.4l.3-.5.2-.3a.8.8,0,0,0-.1-.4h.3l.7-.4,1-.2,1.2-.3,1.1.3.9.6a.9.9,0,0,1,.1.5c.1.2.1.4.2.5s.3.3.4.4l.5.4a5.1,5.1,0,0,0,.2.9,4,4,0,0,0,.7,1.5,12,12,0,0,0,1.1,1.7l1.5,1.9a23,23,0,0,0,3.6,3.5,9.2,9.2,0,0,0,4.8,1.4h4.5l1.7-.3,1.4-.3a6.9,6.9,0,0,0,1.8-.5,1.9,1.9,0,0,0,.7-.6h.3l.5-.3c.2-.1.3-.3.5-.6a1.9,1.9,0,0,1,.6-.7l.9-.7,1-.7.8-1a7.6,7.6,0,0,1,.8-1.1l.6-.8a2.4,2.4,0,0,0,.6-.9,1.6,1.6,0,0,0,.3-.9l.3-.9a2,2,0,0,1,.4-.8,3,3,0,0,0,.4-.8c0-.2.1-.4.1-.7a.7.7,0,0,1,.1-.5l.8-.9.7-.6.8-.7.8.2h.9l.4.2h.5l.9.3a1.9,1.9,0,0,1,.4,1,6.1,6.1,0,0,1,.3,1.7,15.5,15.5,0,0,1-1.7,2.9l-3,3.8a14.5,14.5,0,0,1-1.7,1.8l-1.5,1.6-1.2,1.3a3,3,0,0,1-.7.8l-.7.3Zm40.4,32.5-.7.3-.8.3-.9.5-.9.4h-1.8a4.1,4.1,0,0,1-1.4-.2l-.6-.5-.4-.5-.4-.5-.4-.3a.9.9,0,0,1-.1-.5v-2.8a3.4,3.4,0,0,0,.1-1,2.8,2.8,0,0,0-.1-.9,3.4,3.4,0,0,1-.1-1,2.8,2.8,0,0,1,.1-.9,3.4,3.4,0,0,0,.1-1c-.2-.5-.3-1-.5-1.6a8.8,8.8,0,0,1-.5-1.5,10.5,10.5,0,0,1-.4-1.7l-.3-1.6a5.2,5.2,0,0,0-.6-1.6,28.7,28.7,0,0,1-.9-3.2,9.4,9.4,0,0,0-.4-1.6l-.3-1.1a4.2,4.2,0,0,1-.4-1l-.3-1.1a5.2,5.2,0,0,0-.2-1.1,4.2,4.2,0,0,0-.4-1c-.1-.3-.3-.7-.4-1.1s-.1-.7-.2-1.1a4.5,4.5,0,0,0-.1-1.1,3,3,0,0,0-.4-.8l-.3-.8a1.9,1.9,0,0,1-.1-.8,2.4,2.4,0,0,0-.2-.8,1.1,1.1,0,0,0-.3-.8l-.3-.8a1.9,1.9,0,0,1-.1-.8,2.9,2.9,0,0,0-.2-.9l-.4.6-.4.8-.6,1-1.2,2.5-1.4,3.1-.5.9a3,3,0,0,1-.4,1l-.4.9-.5.8-.3.9-.3.8-.4.7a.9.9,0,0,0-.3.6l-.3.8-.3.8-.5.8-.5.9-.3,1a4.2,4.2,0,0,0-.4,1l-.5.9a9.3,9.3,0,0,0-.5,1,9.1,9.1,0,0,0-.7,1.4,5.8,5.8,0,0,1-.5,1.4c-.3.4-.5.9-.7,1.2a4.1,4.1,0,0,0-.6,1.1,4.2,4.2,0,0,0-.4,1l-.3.7-.4.6c0,.2-.1.4-.1.6v.5a1.3,1.3,0,0,1-.1.6,1.1,1.1,0,0,0-.1.5,1.3,1.3,0,0,0-.1.6.6.6,0,0,1,0,.6,4.3,4.3,0,0,1-.1.5,1.4,1.4,0,0,0-.2.6l-.4.5-.4.4-.4.5-.4.4c-.1.2-.3.3-.3.5l-.4.6-.4.4-.4.5h-3.1l-.3-.4c-.1,0-.2-.2-.3-.3l-.3-.4-.2-.4-.3-.3-.3-.3c-.1-.1-.1-.3-.2-.4a.6.6,0,0,1-.1-.8.9.9,0,0,1,.1-.5c.1-.1.1-.3.2-.4s.3-.2.3-.4a.7.7,0,0,0,.1-.5c-.1-.1,0-.3,0-.4l.3-.4c.1-.2.2-.3.2-.4s.4-.3.5-.5l.5-.6.6-.4.7-.4.4-.5.5-.5.6-.5.6-.4.6-1.3a5.4,5.4,0,0,1,.7-1.3l.6-1.3.7-1.3.6-1.3a9.1,9.1,0,0,1,.7-1.4l.6-1.2.7-1.3,1.5-3,.7-1.5a6.4,6.4,0,0,0,.8-1.4,10.1,10.1,0,0,0,.7-1.5,10.1,10.1,0,0,1,.7-1.5l.8-1.5.9-1.4a6.1,6.1,0,0,0,.5-1.2,5,5,0,0,1,.5-1.3l.7-1.1a7.5,7.5,0,0,0,.7-1.2l.6-1.2a5,5,0,0,1,.5-1.3,7.5,7.5,0,0,1,.7-1.2l.6-1.2c.1-.1.1-.3.2-.5s.1-.3.2-.5.1-.3.3-.4.3-.3.3-.5.2-.3.2-.5.1-.4.2-.6l.5-.9.5.8.6.8.3.9.5.9a1.9,1.9,0,0,0,.6.7,3.5,3.5,0,0,1,.5.8,3.6,3.6,0,0,1,.4.9,4.1,4.1,0,0,0,.5.9,1.9,1.9,0,0,0,.2.7l.3.7c0,.2.1.5.1.7s.1.5.1.7a2.5,2.5,0,0,1,.2.7l.3.7v.8a1.9,1.9,0,0,0,.2.7l.4.8.3,1,.5,1.2a8.8,8.8,0,0,0,.5,1.5l.8,1.6c.2.7.3,1.3.5,2a14.6,14.6,0,0,0,.7,1.9,3.6,3.6,0,0,0,.4.9,3,3,0,0,0,.4.8c.1.3.1.6.2.9l.3.9a2,2,0,0,0,.4.8l.4.9a1.9,1.9,0,0,1,.2.8l.3.9.6,1.6a10.1,10.1,0,0,1,.7,1.5,10.3,10.3,0,0,1,.4,1.4c.2.5.3.9.5,1.3a10.4,10.4,0,0,0,.4,1,5.9,5.9,0,0,1,.4.8,2.5,2.5,0,0,1,.2.7c0,.2,0,.3.1.3s.2.9.4,1.6.1.7.1,1.1.1.8.1,1.1l.3,1.1c.1.3.1.6.2.8v.9Zm27-52.1-.7.5-.4.4-.5.4-.7.3h-.8l-.3.3-.4.2-.5.3-.5.2a1,1,0,0,0-.5.4l-.6.4-.6.3-.6.4-1.3,1-1.4.9-.7.5-.7.5-.7.3-.6.3-1.1.8-1,1.1-1.1,1.1-1,1.2-.6,1.3a5.6,5.6,0,0,0-.4,1.2,8.4,8.4,0,0,0-.6,1.9s.5.7,1.3,2.1l1.2,2a15.8,15.8,0,0,0,1.5,2.4,31,31,0,0,0,1.8,2.6l2.1,2.8,1.8,2.9,1.9,2.9a8.6,8.6,0,0,0,1,1.6l.9,1.4a10.1,10.1,0,0,1,.7,1.5,5.4,5.4,0,0,0,.7,1.3l.6,1.1a5.6,5.6,0,0,0,.5.8,2.5,2.5,0,0,1,.2.7.4.4,0,0,0,.1.3,7.3,7.3,0,0,1,.4,3.1,3.1,3.1,0,0,1-.6,1.3,6.3,6.3,0,0,1-.7,1.2l-.6,1.2a4.4,4.4,0,0,1-.6,1l-.6.7-.4.4a5.8,5.8,0,0,0-.5.9l-1.1,1.5-1.5,1.8a15.4,15.4,0,0,0-1.7,1.9l-1.7,2.1-1.5,1.9a6.8,6.8,0,0,1-2.2,1.7,3.2,3.2,0,0,1-1.2.2l-1.3-.2-1.3-.4a2,2,0,0,1-.8-.8l-.3-.4-.3-.3c-.1-.1-.1-.3-.2-.8a2.8,2.8,0,0,1,.1-.8l.5-.5.7-.5.4-.6.7-.9a3.8,3.8,0,0,1,.9-.9,12.7,12.7,0,0,0,1-1.2,7.3,7.3,0,0,0,.9-1.3l.9-1.4,1.1-1.4a7.1,7.1,0,0,0,1-1.4l.6-1a4.7,4.7,0,0,1,.5-1l.7-.8.7-.8.3-.8.3-.7q.6-1.2.6-.9a1.1,1.1,0,0,0-.1-.8c0-.3-.1-.5-.1-.8l-.5-1.4-.6-.9c-.1,0-.1-.2-.2-.3a7,7,0,0,1-1.4-1.6,23.6,23.6,0,0,1-1.3-2,23.6,23.6,0,0,0-1.5-2.5l-2-2.7-2-3c-1.3-1.9-2.5-4-3.7-6.1-.2-.4-.5-.8-.7-1.3a7.5,7.5,0,0,0-.7-1.2l-.9-2.2a9.2,9.2,0,0,1-.7-1.9,3.8,3.8,0,0,1,0-1.5v-.6a1.6,1.6,0,0,1,0-.7l.3-.6a2.1,2.1,0,0,0,.4-.6,1.4,1.4,0,0,0,.2-.7l.3-.6a1.2,1.2,0,0,1,.5-.5l.5-.5a7.6,7.6,0,0,0,.8-1.1l.9-1,1.1-.9,1.1-.7.8-.8a2.7,2.7,0,0,1,.8-.7l.7-.5.6-.4.9-.8,1.2-1,1.6-.9,1.8-.9,1.7-1.1,1.8-.8a7.1,7.1,0,0,1,3.2-.7h2.2a4.5,4.5,0,0,1,1,1l.6,1c.1.2.1.4.2.6s.1.4.1.6S298.5,386.2,298.5,386.3Z" transform="translate(-141.5 -349.3)" fill="#e6e7e7" fill-rule="evenodd"/><path d="M383.1,440.1c-2.2-.8-5.2.2-7.6,1v1.4c-1.4-1-1.9,1.3-3.3,1.3-5.4.3-10.2,1-15.8,1.1-1.7-2.9-2.1-5.1-3-8.9-1.9-2.1-5.4-2.7-7.2-4.7s-.7-2.5-1.5-3.4c-2.3-2.6-7.3-3.9-6.8-8.1-2.5-2.2-3.4-6-5.6-8.5.7-2.7-1.6-4.3,0-7.5a12.4,12.4,0,0,1-4.1-4.7c-3.2.7-2.6-2.1-4.6-2.4s-.3-4.9-2.2-5.8c.5-.4.4-1.4.4-2.3-2.4-2.6-3.2-5.3-4.9-8.9-3.6-.9-6.3-4.3-4.9-7.8-4.3-3.7-11.2.5-16.9-.6-1.5-.3-2.8-1.9-4.2-2.1s-4.1.2-6,.7c.1-3.2-3.4-3.1-6-3.7s-2.5-1.3-4.2-1.4-6.1.6-6.7,2.7,3,5.6.4,7.5c-1.9-1.9-6.5-2.9-12.1-2.4-1.4-1.6-.2-3.7-.4-6.1a106.8,106.8,0,0,0-13.1-.7c-.9-2.6-4-3.1-6.8-4,1-.5.5-2.3,1.1-3.1a6.9,6.9,0,0,0,3.8-1.3c.5-3.1-1.4-4-3-3.4.4-1.3,2.7-2.6,1.1-4.4-6.9-1.3-11.3,3-17.7,1.3-.7,1.8-9.2-.6-14.3,0-1.7.2-3.1,1.1-4.5.4a11.9,11.9,0,0,0-2.6,3.3,104.8,104.8,0,0,1-16.9.7c-1.8,1.8-1.3,5.6-5.3,5.5a3.2,3.2,0,0,1-4.5,3.3c-.1,1-1.1,1.9-2.6,2.4-1,5.9-1.7,15.2-11.3,14.9v2.7c-3,.3-2,2.4-4.5,2.8.4,2.8-1.7,3.5-4.2,3.7-.2,2-2.9,1.9-3.4,4.4s1.2,7.5,0,11.5c-4.3,3.3-1.4,15.6-2.2,23.1a11.3,11.3,0,0,0-3.4,2.7c-.9,5.8,3.9,6.4,4.9,10.5.9.2.8-.6,1.9-.3,0,2.7,2.8,3.1,4.1,4.7.1,3.7,4.4,5,3,8.9,1.6,4.5,8.4,4.4,12.8,6.4-.2,2.4,2.4,2.3,3.4,3.7s.4,1.5.4,2.4a35.5,35.5,0,0,0,5.7.6c1.9-1,3.9-1.6,5.4-2.9s1.7-.8,3-.7c4.1-2.8,11.9-2.4,17.8-2.2a7.1,7.1,0,0,1,3-.3v-.6c1.3-.8,2.9-.2,4,.4h.7c.7-1.7,5.7-1.2,7.6-.6a2.5,2.5,0,0,1,2.5.8c1.5.3,4.3.3,4.6,1.3,3.8.2,6.7,2.6,11,2.8,1.1-1.1,2.4-.4,2.9-1.3s0,.2.2.6c.9-1.2,2-.9,4-1.4s2.6-2,4.4-2.8,1.1-.1,1.6-.3c2.6-.9,5-3.3,8.4-1.9s6.5,6.8,8.2,11.6c1.2,1.3,2.2,2.9,3.9,3.7,1.8,2.3.9,6.3,1.7,10,.3,1.4.4,3.3.7,5.4s1.6,7.1-.2,10.3c.2,3.8,2.3,5.5,4.4,7.9s4.8,4,7.3,6.3c1.1.4,2.7,1.2,2.9,2.1s-1.4.5-1.8.5c-3.1-.2-9.9-2.6-11.2-5.8,1.5,3.6,5.4,6.1,8.4,8.7,1.3.7,3.1,1,3.3,2.9a12.2,12.2,0,0,1-3.3,0c-1.4-.4-2.3-1.6-3.5-2.3s-3.6-1-4.5-2.4c.9,4.4,3.1,8.9,5,13.1a40.2,40.2,0,0,1,2.6,7.2c.3,1.5.9,2.9.3,4.2,1.2,3.4.1,6.2.5,9.7a9.6,9.6,0,0,1-3.4,3.2c-2.5,1.7-6.7,3.8-10.5,3.4-.2-1.6,1.1-1.8,1.9-2.4s-1.3-1.7-1.3-3.2c1.9-2.4,4.7,1.8,6.8-1.1a20.1,20.1,0,0,0,1.6-4.3c.2-1.6-.6-3.5-1.1-4.9s-2.7-5.4-4.1-8.1c-.5-1-.7-2-1.2-2.9s-2.9-4.5-4.2-7-2.9-4.3-3.9-6.9-1.4-7.5-1.9-11.6c-1.4,1.8-3.2,6.7-5.8,4.2.4-2.2,1.7-5.1.6-6.6s-4.4-2-6.5-3.3-1.6-1.6-2.7-2.1c-.8,1.5.2,3.4-.3,5a5.6,5.6,0,0,1-1.4,2,14.3,14.3,0,0,0,1.1,2.1c-.9,4.7,1.7,4.3,1.9,8.2-1.3.2-1.5-.5-2.7-.4,2.3,4,5.9,7.3,4.2,14.3-2.1-.3-1.7,1.6-4.2,1-1.3,3.4-3.1,8.3-3.5,12.9.1,2,.3,4,.4,5.8a8.9,8.9,0,0,0,3.5,5c-.8,2.6,1.7,2.1,1.9,3.8.4,4.4,1.6,6.6,3.4,10.1-2.4,8.1,4.8,10.4,3.4,18.7,6.2,1.3,7,7,8.2,12.2-.4,1.4-2.1,1.7-2.2,3.4s5.5,2.7,6,6.1c2.3.2,4.4,1.8,7.1.7.6-.5.4-1.5.4-2.4,3.4-2.2,10.1.2,14.3-.7s6.1-3.6,8.7-4.7a22.2,22.2,0,0,0,5.2-3.1,7.4,7.4,0,0,1,1.2-2.7c2.4.3,2.5-4.2,6-4.1.7-4.9,6.9-6.1,7.5-10.8.3-2.2-1-4.2-.4-7.5,2.5-2.2,5.9-1.5,7.9-3.7s.4-8.4,1.2-14.3c-.6-.2-2.1-.3-2.3-1.3s3.1-1.3,4.9-2.4.6-1.4,1.5-2,2.2-.5,3-1c2.4-1.7,4.6-4.4,6.4-6.1s4-2.4,5.3-3.8-.2-1,0-1.3c1.2-2.1,3.6-2.7,3.7-4.1s-1.9-2.8-3-4.4-.2-2.1-1.1-2.7c2.1-4.3-1.8-6.6-.8-10.9-.3-.9-1.4-1.1-2.2-1.7-.1-2.4-.1-4.4-.4-6.8s-2.7-4.7-2.3-6.7a4.1,4.1,0,0,1,4.2-3.1v-2c3.4-.5,3.3-4.3,6.4-5.1v-2.7c2.9-1.1,3.7-4.1,5.6-6.1,4.1-.7,6-3.2,10.5-3.4,1.4-4,6.6-7.1,6.8-13.3.5-1,1.7-1.4,2.6-2C377.2,455.9,383.9,449.8,383.1,440.1Zm-152-37.8-1.2,1a7.1,7.1,0,0,1-1.4,1l-1.6.5-1.8.4a13,13,0,0,1-3.2.8c0,.3-.1.5-.1.8a2.4,2.4,0,0,0-.2.8,1.4,1.4,0,0,0,0,.9,1.1,1.1,0,0,1,0,.8c-.1.3-.1.6-.2.9a3,3,0,0,0-.2,1,1.7,1.7,0,0,0,0,1c0,.4.1.8.1,1.1s-.1.8-.1,1.2a4.1,4.1,0,0,0-.1,1.1,5,5,0,0,0,.2,1.2l.3,1.2v2.5c0,.5.1,1,.1,1.5a6.6,6.6,0,0,1,.1,1.4c0,.5-.1,1.2-.1,2a26.2,26.2,0,0,0,.1,2.7c.1,1.1.2,2.1.3,3.3s.3,2.3.5,3.5.2,2.2.2,3.3.2,2.1.3,3a15,15,0,0,0,.4,2.4,9.6,9.6,0,0,0,.3,1.5,4.6,4.6,0,0,1-.3,2.2l-1.2,2.4-1,.9-1,.7-.9.8a1.2,1.2,0,0,1-.9.4,1.1,1.1,0,0,1-.8-.3l-.6-.3h-1a.8.8,0,0,1-.2-.5c-.1-.1-.1-.3-.2-.4l-.4-.4-.4-.5a1.4,1.4,0,0,1-.2-.7c0-.3-.1-.5-.1-.7a8.7,8.7,0,0,1-.3-1.4,5.8,5.8,0,0,0,.1-1v-.5l.4-.8a3.1,3.1,0,0,0,.1-1,2.3,2.3,0,0,1,.2-1.1,3.1,3.1,0,0,1,.3-1.3,2.8,2.8,0,0,0,.3-1.3,4.5,4.5,0,0,0,.1-1.1v-1a4.4,4.4,0,0,1,.1-.9c.1-.5.2-1.2.3-1.9a20.1,20.1,0,0,0,.1-2.5c0-1,.1-2,.2-3.1s.3-2.3.5-3.5.3-2.5.4-3.7.3-2.5.4-3.8.2-2.5.3-3.7a16,16,0,0,0,.1-3,6.8,6.8,0,0,0-.2-1.4,5.3,5.3,0,0,1-.1-1.3,4.9,4.9,0,0,1-.1-1.2,4.5,4.5,0,0,0,.1-1.1c-.1-.3-.1-.6-.3-.8a2,2,0,0,1-.1-.7c-.3,0-.5-.2-.8-.4a2,2,0,0,0-.8-.4l-.9-.3a1.7,1.7,0,0,1-1-.3l-1.9-.9-1.1-.3-.9-.4-1-.7-.9-.7-1-.5-1-.5-1.3-1.3a3.8,3.8,0,0,1-.9-1.1,9.1,9.1,0,0,0-1.5-2.3,3.9,3.9,0,0,0-1-.8l-.9-.7-.7-.8-.5-.7-.7-.8.3-.5a.9.9,0,0,0,.3-.6.4.4,0,0,0,0-.5.7.7,0,0,1-.1-.5l.3-.4.2-.3a.8.8,0,0,0-.1-.4l.3-.2.7-.3,1-.2,1.2-.3,1.1.3.9.6a.9.9,0,0,1,.1.5c.1.2.1.4.2.5s.3.3.4.4l.5.4a5.1,5.1,0,0,0,.2.9,4.8,4.8,0,0,0,.7,1.5,12,12,0,0,0,1.1,1.7l1.5,1.9a18.3,18.3,0,0,0,3.6,3.4,8.5,8.5,0,0,0,4.8,1.5h4.5l1.7-.3,1.4-.3a6.9,6.9,0,0,0,1.8-.5,1.9,1.9,0,0,0,.7-.6h.3l.5-.3c.2-.1.3-.3.5-.6a1.9,1.9,0,0,1,.6-.7l.9-.7,1-.7.8-1a7.6,7.6,0,0,1,.8-1.1l.6-.8a2.4,2.4,0,0,0,.6-.9,1.6,1.6,0,0,0,.3-.9l.3-.9a2,2,0,0,1,.4-.8,5.9,5.9,0,0,0,.4-.8c0-.2.1-.5.1-.7a.7.7,0,0,1,.1-.5,3.6,3.6,0,0,1,.8-.9l.7-.6c.4-.5.7-.7.8-.7l.8.2h1.3l.5.2.9.3c.2.1.3.5.4,1a5.5,5.5,0,0,1,.3,1.7,15.5,15.5,0,0,1-1.7,2.9l-3,3.8-1.7,1.8-1.5,1.6-1.2,1.3-.7.8-.7.3Zm40.4,32.6-.7.3-.8.3-.9.5-.9.4h-1.8a4.1,4.1,0,0,1-1.4-.2l-.6-.5-.4-.5-.4-.5a.8.8,0,0,1-.4-.4c-.1-.1-.1-.2-.1-.4v-2.8a3.8,3.8,0,0,0,.1-1,2.8,2.8,0,0,0-.1-.9,3.4,3.4,0,0,1-.1-1,2.8,2.8,0,0,1,.1-.9,3.4,3.4,0,0,0,.1-1c-.2-.5-.3-1.1-.5-1.6a28.7,28.7,0,0,1-.9-3.2l-.3-1.6a4.4,4.4,0,0,0-.6-1.6,28.7,28.7,0,0,1-.9-3.2,9.4,9.4,0,0,0-.4-1.6l-.3-1.1a4.2,4.2,0,0,1-.4-1l-.3-1.1a4.3,4.3,0,0,0-.2-1.1,4.2,4.2,0,0,0-.4-1c-.1-.4-.3-.7-.4-1.1s-.1-.7-.2-1.1a4.1,4.1,0,0,0-.1-1.1,3,3,0,0,0-.4-.8l-.3-.8a1.9,1.9,0,0,1-.1-.8,1.9,1.9,0,0,0-.2-.8,1.1,1.1,0,0,0-.3-.8l-.3-.8a1.9,1.9,0,0,1-.1-.8,2.9,2.9,0,0,0-.2-.9l-.4.6-.4.8-.6.9-1.2,2.6-1.4,3.1-.5.9a3,3,0,0,1-.4,1l-.4.9-.5.8-.3.9-.3.8-.4.7a.9.9,0,0,0-.3.6l-.3.8-.3.8a5.6,5.6,0,0,0-.5.8l-.5.9-.3,1a3,3,0,0,0-.4,1l-.5.9a4.7,4.7,0,0,0-.5,1,6.1,6.1,0,0,0-.7,1.4,5.8,5.8,0,0,1-.5,1.4,7.5,7.5,0,0,0-.7,1.2,4.1,4.1,0,0,0-.6,1.1,4.2,4.2,0,0,0-.4,1l-.3.7-.4.6c0,.2-.1.4-.1.6v.5a1.3,1.3,0,0,1-.1.6.9.9,0,0,0-.1.5,1.3,1.3,0,0,0-.1.6.6.6,0,0,1,0,.6,4.3,4.3,0,0,1-.1.5,1.4,1.4,0,0,0-.2.6l-.4.5-.4.4-.4.5-.4.4c-.1.2-.3.3-.3.5l-.4.6-.4.4-.4.4h-3.1l-.3-.3-.3-.3-.3-.4-.2-.4-.3-.3-.3-.3-.2-.4a.6.6,0,0,1-.1-.8.9.9,0,0,1,.1-.5c.1-.1.1-.3.2-.4a.5.5,0,0,0,.3-.4.7.7,0,0,0,.1-.5c-.1-.2,0-.3,0-.5l.3-.3c.1-.2.2-.3.2-.4s.4-.3.5-.5.3-.4.5-.6l.6-.4.7-.4.4-.5.5-.5.6-.5.6-.4.6-1.3a9.1,9.1,0,0,1,.7-1.4l.6-1.3a5.4,5.4,0,0,0,.7-1.3l.6-1.3.7-1.3.6-1.2.7-1.3,1.5-3,.7-1.5a19.8,19.8,0,0,0,1.5-2.9,11.1,11.1,0,0,1,.7-1.6c.3-.4.5-.9.8-1.4l.9-1.4a6.1,6.1,0,0,0,.5-1.2,5,5,0,0,1,.5-1.3l.7-1.2a4.1,4.1,0,0,0,.7-1.1l.6-1.2a5,5,0,0,1,.5-1.3,7.5,7.5,0,0,1,.7-1.2l.6-1.2c.1-.1.1-.3.2-.5s.1-.3.2-.5.1-.3.3-.5.3-.2.3-.4.2-.3.2-.5.1-.4.2-.6l.5-.9.5.8.6.8.3.9.5.9a1.9,1.9,0,0,0,.6.7,3.5,3.5,0,0,1,.5.8,3.6,3.6,0,0,1,.4.9,4.1,4.1,0,0,0,.5.9,1.9,1.9,0,0,0,.2.7l.3.6c0,.3.1.5.1.8s.1.5.1.7a2.5,2.5,0,0,1,.2.7l.3.7v.8a1.9,1.9,0,0,0,.2.7l.4.8.3.9a11.2,11.2,0,0,0,.5,1.3,8.8,8.8,0,0,0,.5,1.5l.8,1.6c.2.6.3,1.3.5,1.9a11.8,11.8,0,0,0,.7,2,3.6,3.6,0,0,0,.4.9,5.9,5.9,0,0,0,.4.8c.1.3.1.6.2.9l.3.9a2,2,0,0,0,.4.8,5.9,5.9,0,0,0,.4.8,2.9,2.9,0,0,1,.2.9l.3.8.6,1.7a10.1,10.1,0,0,1,.7,1.5,7.4,7.4,0,0,1,.4,1.4c.2.5.3.9.5,1.3a10.4,10.4,0,0,0,.4,1,5.9,5.9,0,0,1,.4.8,2.5,2.5,0,0,1,.2.7c0,.1,0,.3.1.3s.2.9.4,1.6.1.7.1,1.1.1.8.1,1.1l.3,1.1c.1.3.1.6.2.8v.9Zm27-52.1-.7.5-.4.4-.5.4-.7.3h-.8l-.3.3-.4.2-.5.3-.5.2a1,1,0,0,0-.5.4l-.6.4-.6.3-.6.3a11.8,11.8,0,0,1-1.3,1.1l-1.4.9-.7.5-.7.4-.7.4-.6.3-1.1.8-1,1.1-1.1,1.1-1,1.2-.6,1.3a5.6,5.6,0,0,0-.4,1.2,7.1,7.1,0,0,0-.6,1.9s.5.7,1.3,2.1l1.2,2a15.8,15.8,0,0,0,1.5,2.4,31,31,0,0,0,1.8,2.6l2.1,2.7,1.8,3,1.9,2.9a8.6,8.6,0,0,0,1,1.6,11,11,0,0,1,.9,1.4,10.1,10.1,0,0,1,.7,1.5,5.4,5.4,0,0,0,.7,1.3l.6,1.1a5.6,5.6,0,0,0,.5.8,2.5,2.5,0,0,1,.2.7,1,1,0,0,0,.1.3,7.3,7.3,0,0,1,.4,3.1,3.8,3.8,0,0,1-.6,1.3l-.7,1.2-.6,1.2-.6,1-.6.7-.4.4a3.1,3.1,0,0,0-.5.9l-1.1,1.5-1.5,1.7c-.6.7-1.2,1.3-1.7,2l-1.7,2.1-1.5,1.9a6.8,6.8,0,0,1-2.2,1.7l-1.2.2-1.3-.2-1.3-.4a3,3,0,0,1-.8-.8l-.3-.4-.3-.3c-.1-.1-.1-.3-.2-.8a2.8,2.8,0,0,1,.1-.8l.5-.5.7-.5.4-.6.7-.9.9-1,1-1.1.9-1.3.9-1.4L285,434l1-1.4.6-1a4.7,4.7,0,0,1,.5-1l.7-.8.7-.8.3-.8.3-.7q.6-1.2.6-.9a1.1,1.1,0,0,0-.1-.8c0-.3-.1-.5-.1-.8l-.5-1.4-.6-.9-.2-.3a7,7,0,0,1-1.4-1.6,23.6,23.6,0,0,1-1.3-2,23.6,23.6,0,0,0-1.5-2.5l-2-2.7-2-3c-1.3-1.9-2.5-4-3.7-6.1l-.7-1.3a7.5,7.5,0,0,0-.7-1.2l-.9-2.2a9.2,9.2,0,0,1-.7-1.9,3.8,3.8,0,0,1,0-1.5v-.6a1.6,1.6,0,0,1,0-.7l.3-.6a2.1,2.1,0,0,0,.4-.6,1.4,1.4,0,0,0,.2-.7l.3-.6a1.2,1.2,0,0,1,.5-.5l.5-.5a7.6,7.6,0,0,0,.8-1.1l.9-1.1,1.1-.8,1.1-.7.8-.8a2.7,2.7,0,0,1,.8-.7l.7-.5c.3-.2.5-.3.6-.5s.5-.4.9-.7a6.3,6.3,0,0,1,1.2-1l1.6-.9,1.8-.9,1.7-1.1,1.8-.9a8.7,8.7,0,0,1,3.2-.6h2.2a3,3,0,0,1,1,1l.6,1c.1.2.1.4.2.6s.1.4.1.6A.3.3,0,0,0,298.5,382.8Z" transform="translate(-141.5 -349.3)" fill="#4b5320" fill-rule="evenodd"/><path d="M187.5,647.2a93.8,93.8,0,0,1,11.2-6.2c3.8-1.8,7.8-3.5,11.8-5a186.4,186.4,0,0,1,24.4-7.6,219.1,219.1,0,0,1,51-6.3,214.2,214.2,0,0,1,51.1,5.8,184.2,184.2,0,0,1,24.5,7.9c4,1.6,7.9,3.3,11.7,5.2a122.3,122.3,0,0,1,11.2,6.2l-12.5-2.5-12.3-2.3c-8.2-1.4-16.4-2.7-24.5-3.6a404,404,0,0,0-49.1-2.7,449.5,449.5,0,0,0-49.1,3.1c-8.2.9-16.4,2.1-24.6,3.4S195.8,645.4,187.5,647.2Z" transform="translate(-141.5 -349.3)" fill="#dc7403"/><path d="M455.6,573.1c.2-4.4.7-24.7.7-27.1V531.7a107.9,107.9,0,0,0-17.6-59.2c-5.4-8.6-12.7-16.8-20-21.2l5.5-14.9a96.2,96.2,0,0,1,21.3,22.3c6.4,10.3,14.8,25.2,17.8,41.1h.2a123.7,123.7,0,0,1,16.6-38.6c6-9.3,17.7-21,26.2-24.8l4,14.9c-8.7,3.6-18.4,12.4-26,24.8a108.6,108.6,0,0,0-15.7,55.6v17.9c0,2.7.4,19.7.7,23.5Z" transform="translate(-141.5 -349.3)" fill="#3f3c32"/><path d="M510.3,522.1c0-36.1,19-65.3,49-65.3,24.1,0,41.7,20.5,41.7,55.4,0,25.4-12.9,63.5-48.6,63.5C525.2,575.7,510.3,550.7,510.3,522.1Zm78-9.2c0-29-14.5-43.5-30.7-43.5-21.7,0-34.7,22.5-34.7,50.2,0,24.3,11.6,43.5,30.6,43.5S588.3,545,588.3,512.9Z" transform="translate(-141.5 -349.3)" fill="#3f3c32"/><path d="M631.8,497.9c0,26.3,1.1,38.3,5.7,49s11.8,15.7,20.6,15.7c10.7,0,16.8-6.9,20.9-15.5,5.7-11.8,5.9-31.3,5.9-56.9v-5.5c0-11.3-.6-20.8-.7-26.9h12.4c0,3.6.1,14.3.1,27.1v7.6c0,31.1-1.6,50.8-10.9,65.9-7.3,11.8-16.1,17.3-29.3,17.3-6.7,0-19.7-1.3-28.4-19.4-5.7-12.1-8.2-24.8-8.2-64.2v-8.7c0-7.5.2-19.3.2-23.1h12.2c-.1,4.2-.5,11.8-.5,26.7Z" transform="translate(-141.5 -349.3)" fill="#3f3c32"/><path d="M738.1,523.4c0,6.2.4,47.2.7,49.7H726c.4-3.8.2-55.4.2-58.8V501.1c0-5-.2-38.5-.7-41.6,5.9,0,16.7-.4,27.1,1.3,16.3,2.7,25.9,12.1,25.9,26.2s-7.4,24.8-17.6,33.2c3.1,5.9,25.1,39.5,28.6,44.3l-9.4,11.6c-1.3-2.3-29.5-50.4-33.1-57.2,6.1-4.4,18.5-13.2,18.5-29.4,0-7.7-4.2-17.4-27.4-17.6Z" transform="translate(-141.5 -349.3)" fill="#3f3c32"/><path d="M817.5,566.8c7.5-18.4,46.8-126.8,50.1-134h.3c12,27.1,44.3,113.2,53.6,133l-11.6,10.7c-2.7-7.2-17.2-46.4-18.7-49.4l-47.4,2.6c-1.6,3.7-12.8,40.5-15.1,47Zm69.6-51.9c-1.5-4.2-18.3-48.7-19.6-51.8-2.1,4.2-17.8,51-19,54Z" transform="translate(-141.5 -349.3)" fill="#dc7403"/><path d="M940.9,573.1c1.1-8.6,1.1-43.4,1.1-47.2V504.4c0-2.7-.3-41.8-.6-44.9,3.2,0,34.3-1.7,41.4-2.5l.5,13.8-29.5.7v39.7c2.4,0,20-.9,27.2-1.5l.4,13.6-27.6-.6v14.9c0,2.5-.1,33.2.4,35.5Z" transform="translate(-141.5 -349.3)" fill="#dc7403"/><path d="M1021.4,523.4c0,6.2.4,47.2.7,49.7h-12.9c.4-3.8.3-55.4.3-58.8V501.1c0-5-.3-38.5-.7-41.6,5.9,0,16.7-.4,27,1.3,16.4,2.7,26,12.1,26,26.2s-7.4,24.8-17.6,33.2c3.1,5.9,25.1,39.5,28.6,44.3l-9.4,11.6c-1.4-2.3-29.5-50.4-33.2-57.2,6.2-4.4,18.6-13.2,18.6-29.4,0-7.7-4.2-17.4-27.4-17.6Z" transform="translate(-141.5 -349.3)" fill="#dc7403"/><path d="M1105.4,524c0,16.2.4,45.3.6,49.1h-12.8c.2-7.1.4-45.1.4-49.3V506.3c0-2.9-.4-43-.7-46.8h13.2c-.3,2.9-.7,27.5-.7,47Z" transform="translate(-141.5 -349.3)" fill="#dc7403"/><path d="M1198.2,574.4a73.5,73.5,0,0,1-15.5,1.3c-42.3,0-52.7-32.4-52.7-48.1,0-27.4,18.6-60.5,61-71l1.9,14.5c-27,4.6-50.2,25.6-50.2,53.9,0,19.1,11.6,37,41.2,37a44.9,44.9,0,0,0,13.1-1.9Z" transform="translate(-141.5 -349.3)" fill="#dc7403"/><path d="M1204.4,568.1c6.5-16.2,42-108,44.7-114.3h.3c10.5,23.1,40,96.2,48,113.2l-11,9.3c-2.2-6.1-15-38.2-16.3-41l-42.1,2.3c-1.7,5.1-11.2,33.4-13.1,38.9Zm61.5-44.5c-1.4-3.6-15.7-40.2-16.9-42.9-1.8,3.8-15.3,42.2-16.4,44.8Z" transform="translate(-141.5 -349.3)" fill="#dc7403"/><path d="M1313.1,573.1c.7-12.2,4.1-103.3,4.7-120.1h.6c3.6,5.4,60.5,85.5,64.3,90.7,0-4.6.3-79.6.4-85l12.2.8c-.6,9.7-2.9,76.2-3.4,117h-.6c-3.5-4.4-63.3-87.8-64.8-90.1h-.3c.3,3.1-.7,82.5-.5,87.8Z" transform="translate(-141.5 -349.3)" fill="#dc7403"/><path d="M1429.4,562.2c13.4-3.8,30.4-13.4,30.4-28.8,0-9.6-4.4-14.5-14.2-22-11.6-8.8-19.6-16.8-19.6-30.3,0-20.3,20.2-39.2,38.9-45.1l2.8,14.7c-8.3,1.9-28.5,11.1-28.5,27.1,0,10,9.7,16.1,15.4,20.8,10.4,8.6,18.7,14.7,18.7,30.2,0,18.7-14.2,39.1-40.4,47.7Z" transform="translate(-141.5 -349.3)" fill="#3f3c32"/><path d="M1486.8,568.1c6.6-16.2,42.1-108,44.8-114.3h.3c10.5,23.1,39.9,96.2,48,113.2l-11.1,9.3c-2.1-6.1-15-38.2-16.2-41l-42.2,2.3c-1.6,5.1-11.2,33.4-13.1,38.9Zm61.6-44.5c-1.4-3.6-15.7-40.2-16.9-42.9-1.8,3.8-15.3,42.2-16.4,44.8Z" transform="translate(-141.5 -349.3)" fill="#3f3c32"/><path d="M1598.7,573.1c1.1-8.6,1.1-43.4,1.1-47.2V504.4c0-2.7-.3-41.8-.5-44.9,3.1,0,34.2-1.7,41.3-2.5l.6,13.8-29.5.7v39.7c2.3,0,19.9-.9,27.1-1.5l.5,13.6-27.6-.6v14.9c0,2.5-.1,33.2.4,35.5Z" transform="translate(-141.5 -349.3)" fill="#3f3c32"/><path d="M1648.8,568.1c6.6-16.2,42-108,44.8-114.3h.2c10.5,23.1,40,96.2,48.1,113.2l-11.1,9.3c-2.2-6.1-15-38.2-16.2-41l-42.2,2.3c-1.6,5.1-11.2,33.4-13.1,38.9Zm61.5-44.5c-1.3-3.6-15.6-40.2-16.9-42.9-1.7,3.8-15.3,42.2-16.3,44.8Z" transform="translate(-141.5 -349.3)" fill="#3f3c32"/><path d="M1773.7,523.4c0,6.2.4,47.2.6,49.7h-12.8c.4-3.8.3-55.4.3-58.8V501.1c0-5-.3-38.5-.7-41.6,5.9,0,16.7-.4,27,1.3,16.4,2.7,26,12.1,26,26.2s-7.4,24.8-17.7,33.2c3.2,5.9,25.2,39.5,28.7,44.3l-9.4,11.6c-1.4-2.3-29.5-50.4-33.2-57.2,6.2-4.4,18.6-13.2,18.6-29.4,0-7.7-4.2-17.4-27.4-17.6Z" transform="translate(-141.5 -349.3)" fill="#3f3c32"/><path d="M1857.7,524c0,16.2.4,45.3.6,49.1h-12.9c.3-7.1.4-45.1.4-49.3V506.3c0-2.9-.4-43-.6-46.8h13.2c-.3,2.9-.7,27.5-.7,47Z" transform="translate(-141.5 -349.3)" fill="#3f3c32"/></svg>