<?xml version="1.0" encoding="UTF-8" standalone="no"?>
<!DOCTYPE svg PUBLIC "-//W3C//DTD SVG 1.1//EN" "http://www.w3.org/Graphics/SVG/1.1/DTD/svg11.dtd">
<svg xmlns="http://www.w3.org/2000/svg">
<metadata>Generated by IcoMoon</metadata>
<defs>
<font id="icomoon" horiz-adv-x="1024">
<font-face units-per-em="1024" ascent="960" descent="-64"/>
<missing-glyph horiz-adv-x="1024"/>
<glyph unicode=" " horiz-adv-x="512" d=""/>
<glyph unicode="" glyph-name="n" horiz-adv-x="683" d="M136.533-64h-136.533l546.133 512-546.133 512h136.533l546.133-512-546.133-512z"/>
<glyph unicode="" glyph-name="p" horiz-adv-x="683" d="M546.133-64h136.533l-546.133 512 546.133 512h-136.533l-546.133-512 546.133-512z"/>
<glyph unicode="" glyph-name="clear" horiz-adv-x="683" d="M682.667 738.338l-49.22-121.378-631.535 206.165 49.289 121.378 188.075-61.372 31.198 76.868 255.317-83.354-31.198-76.868 188.075-61.44zM313.481 877.193l-6.554-16.179 120.013-39.185 6.554 16.179-120.013 39.185zM527.974-64h-479.983l-47.991 656.657h576.034l-48.060-656.657z"/>
<glyph unicode="" glyph-name="file-user" horiz-adv-x="1260" d="M1134.277 832h-504.123l-126.031 128h-378.092c-69.317 0-126.031-57.58-126.031-128v-768c0-70.42 56.714-128 126.031-128h1008.246c69.317 0 126.031 57.58 126.031 128v640c0 70.42-56.714 128-126.031 128zM819.2 640.039c69.317 0 126.031-57.659 126.031-128.079 0-70.341-56.714-127.921-126.031-127.921s-126.031 57.58-126.031 127.921c0 70.42 56.714 128.079 126.031 128.079zM1071.262 128.039h-504.123v63.961c0 83.18 170.142 128 252.062 128s252.062-44.82 252.062-128v-63.961z"/>
<glyph unicode="" glyph-name="r" horiz-adv-x="960" d="M943.808 563.392l-54.976-57.088-153.088 159.040 54.976 57.088c17.344 18.048 43.328 20.288 58.048 4.992l99.84-103.744c14.656-15.232 12.48-42.304-4.8-60.288zM710.272 638.848l153.088-159.104-365.056-379.328c-1.664-1.728-6.336-6.528-12.864-8.32-0.768-0.32-1.536-0.64-2.304-0.896l-190.464-63.104c-5.376-1.792-10.688-0.64-14.208 3.008-3.456 3.584-4.544 9.152-2.88 14.72l60.736 197.952c0.256 0.832 0.576 1.6 0.896 2.368 1.664 6.784 6.336 11.584 8 13.312l68.608 71.36h-231.68c-9.408 0-16.96 7.808-16.96 17.536s7.552 17.6 16.96 17.6h265.536l262.592 272.896zM451.2 112.64l-94.208 97.92-25.28-82.432 40.128-41.792 79.36 26.304zM704.384 575.616c-5.44 5.632-14.208 5.632-19.648 0l-284.544-295.68c-5.44-5.632-5.44-14.784 0-20.416 5.376-5.632 14.208-5.632 19.584 0l284.608 295.744c5.44 5.632 5.44 14.72 0 20.352zM687.168 12.608c0-10.56-8.256-19.136-18.432-19.136h-335.808l-30.336-10.048c-6.080-2.048-12.352-3.072-18.624-3.072-13.312 0-25.728 4.8-35.904 13.12h-174.272c-10.176 0-18.496 8.576-18.496 19.136v805.248c0 10.56 8.32 19.2 18.496 19.2h69.12v-30.4c0-10.56 8.32-19.136 18.496-19.136s18.432 8.576 18.432 19.136v30.4h106.112v-30.4c0-10.56 8.256-19.136 18.432-19.136s18.432 8.576 18.432 19.136v30.4h92.288v-30.4c0-10.56 8.256-19.136 18.432-19.136s18.432 8.576 18.432 19.136v30.4h101.504v-30.4c0-10.56 8.256-19.136 18.432-19.136s18.432 8.576 18.432 19.136v30.4h78.4c10.176 0 18.432-8.64 18.432-19.2v-132.8l19.392 20.096 36.032 37.44v75.264c0 42.304-33.152 76.672-73.856 76.672h-78.4v46.336c0 10.624-8.256 19.2-18.432 19.2s-18.432-8.576-18.432-19.2v-46.336h-101.504v46.336c0 10.624-8.256 19.2-18.432 19.2-10.24 0-18.496-8.576-18.496-19.2v-46.336h-92.224v46.336c0 10.624-8.256 19.2-18.432 19.2-10.24 0-18.496-8.576-18.496-19.2v-46.336h-106.048v46.336c0 10.624-8.256 19.2-18.432 19.2-10.24 0-18.496-8.576-18.496-19.2v-46.336h-69.184c-40.64 0-73.792-34.368-73.792-76.672v-805.184c0-42.304 33.152-76.736 73.792-76.736h595.008c40.64 0 73.792 34.432 73.792 76.736v279.168l-55.36-57.536v-221.696zM543.040 664.832h-360.896c-9.408 0-16.96-7.872-16.96-17.536 0-9.728 7.552-17.6 16.96-17.6h360.896c9.344 0 16.96 7.872 16.96 17.6 0 9.664-7.616 17.536-16.96 17.536zM543.040 523.072h-360.896c-9.408 0-16.96-7.872-16.96-17.536 0-9.728 7.552-17.6 16.96-17.6h360.896c9.344 0 16.96 7.872 16.96 17.6 0 9.664-7.616 17.536-16.96 17.536z"/>
<glyph unicode="" glyph-name="like.active" horiz-adv-x="1205" d="M1119.352 877.357c-56.983 55.176-135.59 82.703-236.002 82.703-27.768 0-56.139-4.759-85.052-14.336-28.913-9.517-55.778-22.408-80.655-38.671-24.877-16.203-46.261-31.443-64.211-45.658-17.89-14.216-34.936-29.335-51.080-45.357-16.143 16.023-33.19 31.142-51.080 45.357-17.95 14.216-39.334 29.455-64.211 45.658-24.877 16.264-51.802 29.154-80.655 38.671-28.913 9.577-57.284 14.336-85.052 14.336-100.412 0-179.080-27.528-236.002-82.703-56.922-55.115-85.353-131.554-85.353-229.316 0-29.816 5.301-60.476 15.782-92.040 10.541-31.563 22.528-58.428 35.96-80.655 13.493-22.227 28.732-43.912 45.719-64.994 17.047-21.143 29.515-35.72 37.346-43.671 7.831-8.011 13.975-13.794 18.492-17.348l419.479-401.408c8.072-8.011 17.95-11.987 29.576-11.987s21.504 3.976 29.576 11.987l418.816 400.083c102.641 101.737 153.961 201.788 153.961 300.032 0 97.762-28.491 174.2-85.353 229.316z"/>
<glyph unicode="" glyph-name="like" horiz-adv-x="1205" d="M1107.366 864.949c-63.066 60.958-146.552 94.328-235.701 94.328s-172.875-33.611-236.002-94.569l-32.949-31.864-33.431 32.346c-63.066 60.958-147.095 94.81-236.243 94.81-88.847 0-172.634-33.551-235.46-94.328-63.066-60.958-97.822-141.975-97.581-228.171 0-86.136 34.997-166.912 98.063-227.87l479.654-463.752c6.626-6.445 15.601-9.879 24.275-9.879s17.589 3.192 24.215 9.638l480.678 462.968c63.066 61.018 97.822 141.975 97.822 228.171 0.241 86.197-34.214 167.153-97.34 228.171zM1058.334 455.77l-456.343-439.537-455.379 440.26c-50.056 48.429-77.643 112.64-77.643 181.007 0 68.427 27.347 132.638 77.402 180.766 49.754 48.128 116.194 74.812 186.669 74.812 70.776 0 137.397-26.684 187.452-75.053l57.705-55.778c13.553-13.131 35.298-13.131 48.791 0l57.224 55.296c50.056 48.369 116.676 75.053 187.211 75.053 70.475 0 136.855-26.684 186.91-74.812 50.056-48.429 77.402-112.58 77.402-181.007 0.241-68.427-27.347-132.578-77.402-181.007z"/>
<glyph unicode="" glyph-name="previews" horiz-adv-x="1619" d="M1589.163 372.821c-38.059-48.725-93.952-107.264-170.667-172.8-152.832-130.731-303.275-212.907-452.011-247.211-51.797-11.776-104.704-16.811-158.293-16.811-55.467 0-109.227 5.035-160.939 16.811-147.029 34.133-297.131 116.907-450.304 247.211-72.021 61.269-129.451 118.272-172.373 172.8-36.181 45.909-36.267 106.325 0 152.235 15.616 19.883 33.28 39.595 53.589 61.013 105.387 111.019 216.576 200.704 335.104 265.899 86.357 47.531 172.117 79.36 255.915 95.829 49.92 9.813 96.768 12.203 139.008 12.203 40.448 0 86.357-2.645 136.277-12.203 82.859-15.872 168.619-47.616 255.915-95.829 122.027-67.328 232.363-157.696 335.104-265.899 17.749-18.688 36.181-39.083 53.675-61.013 37.12-46.677 36.693-105.131 0-152.235zM1515.264 457.387c-9.387 12.544-25.515 30.976-48.384 55.467-99.328 106.155-202.496 186.539-309.589 244.224-82.859 44.715-159.147 74.411-228.608 87.381-41.301 7.68-80.981 11.264-120.491 11.264-41.387 0-81.749-4.011-121.429-11.264-68.523-12.544-144.64-42.325-228.608-87.381-105.131-56.405-209.323-137.131-311.381-244.224-4.352-5.632-12.544-14.848-23.723-27.221-10.752-12.032-18.432-21.675-22.869-28.245-6.144-6.571-6.144-12.203 0-16.896 37.803-49.835 90.027-103.168 156.587-159.744 141.056-119.979 278.613-195.072 412.416-225.536 48.299-10.752 93.269-15.019 136.363-15.019h2.645c42.155 0 88.064 4.011 138.069 15.019 135.595 30.293 271.872 107.179 410.709 225.536 66.133 56.405 119.637 108.971 158.293 159.744 4.437 4.693 4.693 10.581 0 16.896zM808.192 119.211c-85.333 0-159.403 31.659-219.904 95.829-60.928 64.512-90.624 141.824-90.624 232.96s29.952 169.131 90.624 233.899c60.672 64.853 134.571 96.768 219.904 96.768 85.248 0 157.184-32.171 217.173-96.768 60.501-65.024 90.624-142.763 90.624-233.899s-29.867-168.192-90.624-232.96c-59.819-63.915-131.925-95.829-217.173-95.829zM956.757 607.744c-40.619 43.861-89.685 66.645-148.565 66.645-58.965 0-109.056-22.528-150.443-66.645-41.301-44.203-62.379-96.768-62.379-159.744 0-61.013 21.077-114.603 62.379-158.805 41.387-44.117 91.477-66.645 150.443-66.645 58.027 0 107.264 21.589 148.565 65.707 41.387 44.203 61.611 97.707 61.611 159.744 0 62.976-20.48 115.285-61.611 159.744z"/>
<glyph unicode="" glyph-name="messages" horiz-adv-x="1243" d="M1152.731 960.219h-1061.595c-50.469 0-91.429-37.961-91.429-84.48v-689.006c0-46.519 40.96-84.48 91.429-84.48h574.464l214.455-148.041c17.554-12.142 35.767-18.359 53.76-18.359 33.499 0 69.559 23.625 69.486 75.337v91.063h149.431c50.322 0 91.282 37.961 91.282 84.48v689.006c0 46.519-40.96 84.48-91.282 84.48zM1159.314 186.734c0-3.291-2.853-6.071-6.51-6.071h-234.277v-155.063l-224.695 155.136h-602.697c-3.657 0-6.51 2.706-6.51 6.071v688.933c0 3.365 2.853 6.071 6.51 6.071v0h1061.595c3.657 0 6.51-2.779 6.51-6.071v-689.006h0.073zM233.179 599.991h183.808v-169.911h-183.808v169.911zM530.066 599.991h183.808v-169.911h-183.808v169.911zM826.953 599.991h183.881v-169.911h-183.881v169.911z"/>
<glyph unicode="" glyph-name="tour-auto" horiz-adv-x="1654" d="M1605.947 146.865h-89.797l-0.551 3.623c-8.901 52.382-36.785 100.352-78.375 135.089-42.063 35.052-95.783 54.43-151.158 54.43-55.454 0-109.095-19.377-151.237-54.43-41.669-34.737-69.632-82.708-78.533-135.089l-0.709-3.623h-467.417l-0.473 3.623c-9.137 52.382-37.022 100.352-78.612 135.089-42.063 35.052-95.705 54.43-151.158 54.43-55.217 0-108.859-19.377-151.001-54.43-4.884-4.175-9.767-8.428-14.336-12.997-6.853-6.695-13.154-13.942-19.141-21.425-5.829-7.562-11.264-15.202-16.148-23.473-4.884-8.034-9.295-16.384-13.154-25.127s-7.168-17.644-9.767-26.703c-2.836-9.295-6.695-27.963-6.695-27.963h-79.951c-26.309 0.158-47.734 21.425-47.734 47.104v51.358c0 25.994 21.583 47.104 48.207 47.104h0.551l35.21-0.394v185.265c0 25.994 21.583 47.025 48.286 47.025l296.724-0.709 178.334 243.161c9.137 12.288 23.867 19.614 39.306 19.614h888.281c26.624 0 48.207-21.031 48.207-47.025l0.394-447.488h22.213c26.703 0 48.286-21.031 48.443-47.262v-51.673c0-25.994-21.583-47.104-48.207-47.104zM831.961 671.39c0 23.631-19.614 42.772-43.796 42.772h-100.825c-14.257 0-27.569-6.695-35.84-17.959l-98.698-135.247c-12.446-16.935 0-40.566 21.346-40.566h213.622c24.182 0 43.874 19.22 44.19 42.85v108.15zM1483.855 671.232c0 10.24-4.175 19.85-11.579 27.175-7.326 7.404-17.329 11.343-27.884 11.343h-448.985c-10.476 0-20.48-4.096-27.884-11.343-7.483-7.168-11.579-16.935-11.579-27.175v-108.229c0-21.189 17.723-38.518 39.463-38.518h448.985c21.74 0 39.463 17.329 39.463 38.518v108.229zM1484.721 840.192h-740.037c-33.871 0-61.44 26.86-61.44 59.865 0 33.083 27.569 59.943 61.44 59.943h740.037c33.871 0 61.361-26.86 61.361-59.943 0-33.004-27.49-59.865-61.361-59.865zM358.085 289.28c99.801 0 181.012-79.242 181.012-176.601 0-97.438-81.211-176.679-181.012-176.679-99.722 0-180.933 79.242-180.933 176.679 0 97.359 81.211 176.601 180.933 176.601zM358.085 32.729c45.292 0 82.078 35.919 82.078 80.108s-36.785 80.108-82.078 80.108c-45.056 0-81.841-35.919-81.841-80.108s36.628-80.108 81.841-80.108zM1285.671 289.28c99.801 0 181.012-79.242 181.012-176.601 0-97.438-81.211-176.679-181.012-176.679s-180.933 79.242-180.933 176.679c0 97.359 81.132 176.601 180.933 176.601zM1285.671 32.571c45.292 0 82.078 35.919 82.078 80.108 0 44.111-36.785 80.108-82.078 80.108-45.214 0-82.078-35.998-82.078-80.108 0-44.19 36.864-80.108 82.078-80.108z"/>
<glyph unicode="" glyph-name="tato" horiz-adv-x="1075" d="M1062.656 789.402c-9.472-1.638-24.115-2.765-45.005-6.349-38.349-6.502-94.669-31.846-112.64-65.331s-39.885-106.957-7.834-139.622c6.707-6.656 5.478-20.122-8.909-46.95-15.462-28.774-29.85-26.573-43.52-24.525-38.758 5.888-87.040-3.84-137.626-50.586-61.286-56.678-56.678-100.915-56.218-130.97 6.4-0.973 14.643-0.87 22.426 3.328 15.974 8.602 53.76 78.438 80.947 99.686 27.136 21.248 71.219 34.918 144.896 25.805 4.71-4.147 10.752-90.982-16.947-148.787-31.027-64.768-93.133-78.694-109.568-80.435-33.434-3.533-33.434-3.533-33.434-3.533s-14.029-65.792-85.76-51.61c3.84 26.829 2.406 37.939 2.406 37.939s-4.608-11.11-16.486-10.65c-11.878 0.563-16.486 7.117-17.92 9.626-3.43-3.533-42.906-25.549-45.568-33.382s-8.755-45.005 5.581-70.81c14.285-25.805 43.827-70.093 37.069-95.386-6.81-25.293-13.107-27.853-13.107-27.853s-2.406 17.459-9.933 25.293c-7.526 7.885-15.258 9.882-15.258 9.882s15.258 25.037 12.595 35.174c-2.662 10.086-10.394 24.269-30.515 20.992s-24.73-11.366-24.73-11.366c0 0-4.608 8.090-24.73 11.366s-27.853-10.906-30.515-20.992c-2.662-10.138 12.595-35.174 12.595-35.174s-7.782-1.997-15.258-9.882c-7.526-7.834-9.933-25.293-9.933-25.293s-6.298 2.56-13.107 27.853c-6.758 25.293 22.784 69.581 37.069 95.386s8.243 62.976 5.581 70.81c-2.662 7.834-42.138 29.85-45.568 33.382-1.434-2.509-6.042-9.062-17.92-9.626-11.878-0.461-16.486 10.65-16.486 10.65s-1.434-11.11 2.406-37.939c-71.731-14.182-85.76 51.61-85.76 51.61s0 0-33.434 3.533c-16.435 1.741-78.541 15.667-109.568 80.435-27.699 57.805-21.658 144.64-16.947 148.787 73.677 9.114 117.76-4.557 144.896-25.805 27.187-21.248 64.973-91.085 80.947-99.686 9.728-5.222 20.122-4.096 26.778-2.406-1.434 30.925-5.888 78.899-60.518 130.048-50.381 47.053-98.918 56.474-137.677 50.586-13.67-2.048-28.058-4.25-43.52 24.525-14.387 26.829-15.616 40.294-8.909 46.95 32.051 32.666 10.138 106.138-7.834 139.622s-74.291 58.829-112.64 65.331c-20.89 3.584-35.533 4.71-45.005 6.349-7.987 1.331-13.466 9.216-12.39 17.664 13.261 102.298 58.573 141.056 76.186 152.474 2.458 1.638 5.325-1.434 3.686-3.994-11.52-17.92-45.67-64.256-42.035-126.362 93.85-13.056 140.442-37.939 179.917-93.491 39.526-55.552 42.24-116.378 40.704-149.862 112.64-25.702 129.843-45.312 167.782-74.701s69.99-84.122 83.302-117.197c7.322-18.227 18.944-30.618 27.904-38.093 8.96 7.475 20.582 19.866 27.904 38.093 13.312 33.075 45.363 87.808 83.302 117.197s55.142 48.998 167.782 74.701c-1.536 33.485 1.178 94.31 40.704 149.862 39.475 55.552 86.067 80.435 179.917 93.491 3.635 62.106-30.515 108.442-42.035 126.362-1.587 2.56 1.229 5.632 3.686 3.994 17.613-11.418 62.925-50.176 76.186-152.474 1.075-8.448-4.403-16.333-12.39-17.664zM751.821 257.894c5.478-3.021 75.315-15.155 89.856 18.227 5.478 16.845-5.171 20.582-5.171 20.582s-12.954-8.806-30.72-9.779c-17.766-1.024-44.902-12.186-52.019-22.272 0.666 16.845 15.514 56.32 62.054 91.034 21.658 12.851 62.669 3.072 66.253 42.189 1.178 13.056-14.899 29.030-46.234 27.648-31.334-1.331-61.389-16.538-75.93-41.83s-4.198-55.654-11.315-75.213c-7.117-19.558-9.677-28.979-9.677-28.979s7.424-18.586 12.902-21.606zM326.605 308.48c-7.117 19.558 3.226 49.92-11.315 75.213s-44.595 40.499-75.93 41.83c-31.334 1.382-47.411-14.592-46.234-27.648 3.584-39.117 44.595-29.338 66.253-42.189 46.541-34.714 61.389-74.189 62.054-91.034-7.117 10.086-34.253 21.248-52.019 22.272-17.766 0.973-30.72 9.779-30.72 9.779s-10.65-3.738-5.171-20.582c14.541-33.382 84.378-21.248 89.856-18.227s12.902 21.606 12.902 21.606c0 0-2.56 9.421-9.677 28.979zM434.842 296.704c-33.587-21.965-38.144-66.816-38.144-66.816 23.296 21.914 38.144 2.355 38.144 2.355l3.891-13.824 6.605 7.066c0 0 39.578-11.11 48.64-19.2-4.864 44.851-38.758 74.906-59.136 90.419zM640.358 296.704c-20.378-15.514-54.272-45.568-59.136-90.419 9.062 8.090 48.64 19.2 48.64 19.2l6.605-7.066 3.891 13.824c0 0 14.848 19.558 38.144-2.355 0 0-4.557 44.851-38.144 66.816zM423.117 105.421c17.203-28.826 22.886-59.853 22.886-71.885v-3.226l-79.155 136.090c0 0 0.512-0.41 1.536-1.28 5.888-4.966 33.638-24.32 54.733-59.699zM499.046 53.76c10.189 7.373 30.054-2.509 29.338-35.379-37.325 4.506-35.277 31.13-29.338 35.379zM546.816 18.381c-0.717 32.87 19.149 42.752 29.338 35.379 5.939-4.25 7.987-30.874-29.338-35.379zM524.032-39.68c11.366 3.533 13.568 24.269 13.568 24.269s2.202-20.736 13.568-24.269c10.906-3.379 33.946-3.021 41.216 3.789-2.099-10.24-20.173-26.726-52.838-27.955v-0.102c-0.666 0-1.28 0.051-1.946 0.051s-1.28-0.051-1.946-0.051v0.102c-32.666 1.229-50.739 17.715-52.838 27.955 7.27-6.81 30.259-7.168 41.216-3.789zM706.816 165.12c1.024 0.87 1.536 1.28 1.536 1.28l-79.155-136.090v3.226c0 12.032 5.683 43.059 22.886 71.885 21.094 35.379 48.845 54.733 54.733 59.699z"/>
<glyph unicode="" glyph-name="close" d="M1024 857.6l-102.4 102.4-409.6-409.6-409.6 409.6-102.4-102.4 409.6-409.6-409.6-409.6 102.4-102.4 409.6 409.6 409.6-409.6 102.4 102.4-409.6 409.6 409.6 409.6z"/>
<glyph unicode="" glyph-name="form" horiz-adv-x="1236" d="M1146.793-62.698h-1064.786c0 0-78.897-1.229-78.897 83.308v418.784c0 0 285.433-128.289 609.121-128.289 351.892 0 617.654 124.456 617.654 124.456v-414.951c0 0 5.207-83.381-83.092-83.308zM717.957 293.243h-202.92v-53.225c0-28.565 22.707-51.634 50.694-51.634h101.532c28.059 0 50.694 23.069 50.694 51.634v53.225zM3.11 494.282v162.567c0 0-2.965 83.308 80.271 83.308h327.593v40.28c0 0-9.040 167.774 165.026 167.774h78.029c0 0 165.098 10.414 165.098-166.545v-41.51h326.292c0 0 84.466 3.977 84.393-83.308v-161.266c0 0-330.124-130.459-615.846-130.459-261.496 0-610.856 129.157-610.856 129.157zM711.81 783.91c0 0 2.965 85.84-94.518 85.84 0 0-96.181-1.229-96.181-84.538v-43.028h190.698v41.727zM717.957 475.336h-202.92v-79.548l202.92 0.145v79.403z"/>
<glyph unicode="" glyph-name="star" horiz-adv-x="1088" d="M1074.432 536.448c11.904 10.304 16.384 26.624 11.328 41.408-4.992 14.784-18.624 25.152-34.496 26.368l-315.968 23.168c-14.656 1.088-27.456 10.048-33.28 23.296l-125.504 285.952c-6.272 14.272-20.672 23.552-36.608 23.36-15.808-0.128-30.080-9.664-36.096-24.064l-120.064-288.128c-5.568-13.376-18.24-22.592-32.896-23.936l-315.456-28.928c-15.808-1.408-29.248-12.032-33.984-26.944-4.736-14.848 0.064-31.104 12.096-41.216l241.792-201.28c11.2-9.344 16.256-24 12.992-38.080l-69.504-303.808c-3.456-15.168 2.688-30.976 15.616-40.064 12.992-9.024 30.144-9.6 43.648-1.344l269.504 163.712c12.48 7.616 28.224 7.808 40.896 0.384l272.512-158.784c13.632-7.936 30.848-7.168 43.584 2.176 12.736 9.28 18.624 25.152 14.848 40.384l-75.2 302.4c-3.52 14.080 1.216 28.8 12.288 38.336l237.952 205.632z"/>
<glyph unicode="" glyph-name="here" horiz-adv-x="768" d="M384 960v0c-212.416 0-384-165.312-384-370.112 0-71.36 23.68-139.52 56.576-195.584l271.616-417.408c0 0 25.984-40.896 55.808-40.896s55.808 40.896 55.808 40.896l271.616 417.216c33.152 56 56.576 122.944 56.576 195.52 0 204.8-171.52 370.368-384 370.368zM384 480.576c-77.12 0-140.16 60.736-140.16 135.104s63.040 135.104 140.16 135.104c77.184 0 140.16-60.736 140.16-135.104 0-74.624-62.976-135.104-140.16-135.104z"/>
<glyph unicode="" glyph-name="twitter" horiz-adv-x="1243" d="M1243.429 838.802c-45.714-20.553-94.939-34.45-146.505-40.667 52.663 31.963 93.111 82.651 112.128 142.994-49.298-29.623-103.863-51.127-161.938-62.757-46.592 50.249-112.859 81.627-186.222 81.627-140.873 0-255.122-115.712-255.122-258.487 0-20.261 2.267-40.009 6.583-58.953-211.968 10.825-399.945 113.737-525.751 270.19-22.016-38.181-34.597-82.651-34.597-130.048 0-89.673 45.056-168.741 113.518-215.113-41.838 1.317-81.189 12.946-115.566 32.329 0-1.097 0-2.194 0-3.291 0-125.221 87.918-229.742 204.654-253.44-21.431-5.925-43.959-9.143-67.218-9.143-16.457 0-32.402 1.682-47.982 4.681 32.402-102.693 126.61-177.445 238.299-179.566-87.333-69.339-197.339-110.665-316.855-110.665-20.626 0-40.887 1.243-60.855 3.657 112.859-73.362 247.003-116.151 391.022-116.151 469.285 0 725.87 393.874 725.87 735.525 0 11.191-0.293 22.382-0.731 33.499 49.81 36.425 93.038 81.92 127.269 133.778z"/>
<glyph unicode="" glyph-name="google-plus" d="M852.288 796.608c0 0 0-124.096 0-124.096s-45.312 0-45.312 0c0 0 0 124.096 0 124.096s-123.968 0-123.968 0c0 0 0 39.296 0 39.296s123.968 0 123.968 0c0 0 0 124.096 0 124.096s45.312 0 45.312 0c0 0 0-124.096 0-124.096s123.456 0 123.456 0c0 0 0-39.296 0-39.296s-123.456 0-123.456 0zM474.048 914.688c29.184-23.936 90.24-74.496 90.24-170.112 0-93.184-53.44-137.216-106.752-178.816-16.512-16.384-35.52-33.984-35.52-61.76s19.008-42.752 32.896-54.080c0 0 45.824-35.2 45.824-35.2 55.936-46.656 106.752-89.6 106.752-176.448 0-118.4-115.712-238.144-334.208-238.144-184.256 0-273.28 86.976-273.28 180.224 0 45.44 22.912 109.504 97.856 153.728 78.848 47.872 185.6 54.144 242.752 57.856-17.792 22.784-38.144 46.656-38.144 85.504 0 21.632 6.464 34.24 12.8 49.152-14.080-1.216-28.032-2.496-40.768-2.496-134.592 0-210.88 99.584-210.88 197.824 0 57.984 26.624 122.048 81.344 168.832 72.384 59.008 158.784 69.056 227.328 69.056 0 0 261.824 0 261.824 0s-81.216-45.12-81.216-45.12c0 0-78.848 0-78.848 0zM221.12 336.512c-27.904-10.048-109.248-40.192-109.248-129.728 0-89.408 87.68-153.664 223.68-153.664 121.984 0 186.816 57.984 186.816 136 0 64.192-41.92 98.368-138.496 166.272-10.24 1.216-16.576 1.216-29.312 1.216-11.392 0-80.064-2.432-133.44-20.096zM292.352 918.464c-33.088 0-68.672-16.448-89.024-41.6-21.504-26.432-27.84-60.416-27.84-93.248 0-84.224 49.472-224.128 158.72-224.128 31.808 0 66.112 15.168 86.464 35.264 29.248 28.928 31.808 69.248 31.808 91.968 0 90.624-54.72 231.744-160.128 231.744z"/>
<glyph unicode="" glyph-name="country" d="M624.512-49.408c0 0 8.768 32.96 8.768 32.96s82.432 57.152 82.432 57.152c0 0 21.568 61.184 21.568 61.184s56.96 27.456 56.96 27.456c0 0 53.888 107.008 53.888 107.008s-83.392 50.944-83.392 50.944c0 0-43.136 51.008-43.136 51.008s-25.536 3.008-25.536 3.008c0 0-51.008 14.336-51.008 14.336s-43.968 7.168-43.968 7.168c0 0-38.464-11.264-38.464-11.264s-23.552 27.52-23.552 27.52c0 0-23.616 7.168-23.616 7.168s2.048 36.608 2.048 36.608c0 0-28.48-0.896-28.48-0.896s-16.192-19.456-16.192-19.456c0 0-9.28 40.832-9.28 40.832s37.248 18.304 37.248 18.304c0 0 38.272-18.304 38.272-18.304s20.608 0 20.608 0c0 0 7.424 31.616 7.424 31.616s57.344 71.36 57.344 71.36c0 0 79.552 41.728 79.552 41.728s46.080-6.080 46.080-6.080c0 0 4.16 23.36 4.16 23.36s-57.152 60.224-57.152 60.224c0 0-21.504 44.8-21.504 44.8s-31.488 0-31.488 0c0 0-19.648 11.904-19.648 11.904s-42.176 6.528-42.176 6.528c0 0-8.832-52.096-8.832-52.096s-51.072 10.24-51.072 10.24c0 0-3.904 32.64-3.904 32.64s39.232 9.216 39.232 9.216c0 0 12.992 58.432 12.992 58.432s38.912-16.64 38.912-16.64c0 0-1.024-24.896-1.024-24.896s29.632-12.864 29.632-12.864c0 0 19.904-6.080 19.904-6.080s24.32 13.248 24.32 13.248c0 0-21.632 26.432-21.632 26.432s-44.16 44.8-44.16 44.8c0 0 1.024 21.44 1.024 21.44s45.056-9.152 45.056-9.152c0 0 38.272-35.648 38.272-35.648s11.776-31.616 11.776-31.616c0 0 8.896-29.632 8.896-29.632s60.864-57.024 60.864-57.024c0 0 15.616-5.184 15.616-5.184s21.568 35.84 21.568 35.84c0 0 76.544 7.104 76.544 7.104s14.336 4.736 14.336 4.736c51.2-79.232 81.152-174.72 81.152-277.44 0-234.944-156.736-431.36-367.232-484.032zM651.968 889.92c0 0-33.28-23.104-33.28-23.104s-23.616-27.008-23.616-27.008c0 0-85.696-8.32-85.696-8.32s-35.328 6.016-35.328 6.016c0 0-10.944-17.984-10.944-17.984-7.68 39.040-25.664 74.112-50.624 102.464 32.128 6.976 65.344 11.136 99.52 11.136 73.088 0 142.208-17.536 204.224-47.872 0 0-17.152-2.688-17.152-2.688s-47.104 7.36-47.104 7.36zM581.312 911.68c0 0-49.088-28.032-49.088-28.032s-28.096-18.24-28.096-18.24c0 0 19.584-13.184 19.584-13.184s43.456 4.544 43.456 4.544c0 0 45.568 36.032 45.568 36.032s-31.424 18.88-31.424 18.88zM259.52 442.304c0 0-176.128 173.504-176.128 334.208 0 101.056 78.848 182.976 176.128 182.976s176.128-81.92 176.128-182.976c0-152.064-176.128-334.208-176.128-334.208zM259.52 871.872c-50.688 0-91.776-42.688-91.776-95.36s41.088-95.296 91.776-95.296c50.688 0 91.776 42.624 91.776 95.296s-41.088 95.36-91.776 95.36zM262.4 369.216c0 0 77.824 73.024 115.2 118.144 0 0 0.64-86.848 0.64-86.848s11.712 0 11.712 0c0 0 0 34.24 0 34.24s26.496-57.6 26.496-57.6c0 0 79.808-18.56 79.808-18.56s35.968-37.568 35.968-37.568c0 0 32.128-10.048 32.128-10.048s-32.128-69.44-32.128-69.44c0 0 34.944-67.328 34.944-67.328s22.080-77.504 22.080-80.512c0-3.072-22.080-92.736-22.080-92.736s4.992-60.352 4.992-60.352c-19.712-2.496-39.808-4.352-60.16-4.352-265.024 0-479.808 223.232-479.808 498.496 0 76.992 8.128 105.728 38.208 170.816 68.16-166.784 192-236.352 192-236.352z"/>
<glyph unicode="" glyph-name="photo" d="M921.6 64c0 0-819.2 0-819.2 0-56.32 0-102.4 43.2-102.4 96 0 0 0 432 0 432 0 52.8 46.080 96 102.4 96 0 0 122.88 0 122.88 0 16.896 0 35.072 12.288 40.448 27.328 0 0 31.744 89.344 31.744 89.344 5.376 15.040 23.552 27.328 40.448 27.328 0 0 348.16 0 348.16 0 16.896 0 35.072-12.288 40.448-27.328 0 0 31.744-89.344 31.744-89.344 5.376-15.040 23.552-27.328 40.448-27.328 0 0 122.88 0 122.88 0 56.32 0 102.4-43.2 102.4-96 0 0 0-432 0-432 0-52.8-46.080-96-102.4-96zM512 670.016c-146.88 0-265.984-117.76-265.984-263.040 0-145.216 119.104-262.976 265.984-262.976s265.984 117.76 265.984 262.976c0 145.28-119.104 263.040-265.984 263.040zM900.992 630.016c-22.656 0-40.96-17.92-40.96-40s18.304-40 40.96-40c22.656 0 41.024 17.92 41.024 40s-18.368 40-41.024 40zM512 225.984c-101.632 0-184 81.536-184 182.016 0 100.544 82.368 182.016 184 182.016s184-81.472 184-182.016c0-100.48-82.368-182.016-184-182.016z"/>
<glyph unicode="" glyph-name="shortlist" d="M821.696-64c0 0-619.52 0-619.52 0-40.768 0-73.856 31.36-73.856 70.016 0 0 0 689.92 0 689.92 0 38.656 33.088 70.016 73.856 70.016 0 0 108.608 0 108.608 0s0 22.464 0 22.464c0 25.472 21.76 46.080 48.704 46.080 0 0 65.536 0 65.536 0-6.656 11.456-10.432 25.536-10.432 39.872 0 47.168 40.448 85.632 90.176 85.632s90.24-38.464 90.24-85.632c0-14.336-3.776-28.416-10.432-39.872 0 0 79.936 0 79.936 0 26.816 0 48.64-20.608 48.64-46.080 0 0 0-22.464 0-22.464s108.544 0 108.544 0c40.768 0 73.856-31.36 73.856-70.016 0 0 0-689.92 0-689.92 0-38.656-33.088-70.016-73.856-70.016zM504.704 925.376c-29.568 0-53.696-22.912-53.696-51.008 0-16.064 7.936-29.888 20.288-39.872 0 0 66.944 0 66.944 0 12.352 9.984 20.224 23.808 20.224 39.872 0 28.096-24.064 51.008-53.76 51.008zM821.696 47.616c0 0 0 605.312 0 605.312 0 23.744-20.352 43.008-45.44 43.008 0 0-63.104 0-63.104 0 0-18.944-16.192-34.304-36.224-34.304 0 0-330.048 0-330.048 0-19.968 0-36.16 15.36-36.16 34.304 0 0-63.104 0-63.104 0-25.088 0-45.44-19.264-45.44-43.008 0 0 0-605.312 0-605.312 0-23.744 20.352-43.008 45.44-43.008 0 0 528.704 0 528.704 0 25.024 0 45.376 19.264 45.376 43.008 0 0 0 0 0 0zM703.488 148.864c0 0-218.88 0-218.88 0-20.224 0-36.544 15.936-36.544 35.008s16.384 35.008 36.544 35.008c0 0 218.816 0 218.816 0 20.16 0 36.48-15.936 36.544-35.008 0-19.072-16.32-35.008-36.48-35.008zM703.488 333.12c0 0-218.88 0-218.88 0-20.224 0-36.544 15.936-36.544 35.008s16.384 35.008 36.544 35.008c0 0 218.816 0 218.816 0 20.16 0 36.48-15.936 36.544-35.008 0-19.072-16.32-35.008-36.48-35.008zM703.488 505.92c0 0-218.88 0-218.88 0-20.224 0-36.544 15.232-36.544 34.304s16.384 34.304 36.544 34.304c0 0 218.816 0 218.816 0 20.16 0 36.48-15.232 36.544-34.304 0-19.072-16.32-34.304-36.48-34.304zM338.368 122.944c-35.456 0-64.192 27.2-64.192 60.8s28.736 60.8 64.192 60.8c35.392 0 64.128-27.2 64.128-60.8s-28.736-60.8-64.128-60.8zM338.368 307.264c-35.456 0-64.192 27.2-64.192 60.8s28.736 60.8 64.192 60.8c35.392 0 64.128-27.2 64.128-60.8s-28.736-60.8-64.128-60.8zM338.368 479.744c-35.456 0-64.192 27.264-64.192 60.8 0 33.6 28.736 60.864 64.192 60.864 35.392 0 64.128-27.264 64.128-60.864 0-33.536-28.736-60.8-64.128-60.8z"/>
<glyph unicode="" glyph-name="books" d="M1022.784 386.752c0 0-10.304-22.464-10.304-22.464-3.008-6.4-10.56-9.024-17.536-7.68-23.488 4.608-47.936-7.232-58.432-29.952-10.496-22.656-3.648-48.896 15.104-63.808 5.504-4.48 8.512-11.904 5.504-18.368 0 0-9.408-20.288-9.408-20.288-3.008-6.4-10.56-9.024-17.536-7.68-23.488 4.608-47.936-7.232-58.432-29.952-10.496-22.656-3.648-48.896 15.040-63.744 5.568-4.48 8.576-11.968 5.568-18.432 0 0-9.408-20.288-9.408-20.288-3.008-6.4-10.56-9.024-17.536-7.68-23.488 4.608-47.936-7.232-58.432-29.888s-3.648-48.96 15.040-63.808c5.568-4.48 8.576-11.968 5.568-18.432 0 0-9.408-20.288-9.408-20.288-3.008-6.4-10.56-9.024-17.536-7.68-1.28 0.32-750.656 345.664-751.68 346.496-5.504 4.48-8.512 11.968-5.504 18.432 0 0 9.344 20.224 9.344 20.224 3.008 6.464 10.624 9.088 17.536 7.68 23.552-4.544 47.936 7.296 58.432 29.952 4.992 10.816 6.080 22.336 3.776 33.152 0.192 0 0.384-0.128 0.64-0.128 4.224-0.768 8.512-1.728 12.736-2.56 9.28-1.92 18.496-3.712 27.776-5.632 13.504-2.688 26.944-5.376 40.32-8.064 16.768-3.328 33.6-6.784 50.432-10.112 19.456-3.84 38.784-7.808 58.24-11.648 21.184-4.224 42.432-8.512 63.616-12.8 22.272-4.416 44.416-8.896 66.688-13.376 22.336-4.48 44.8-9.024 67.264-13.504 21.824-4.48 43.712-8.832 65.6-13.184 20.48-4.16 40.96-8.256 61.44-12.416 18.304-3.648 36.672-7.36 54.976-11.008 15.36-3.072 30.784-6.144 46.144-9.216 11.648-2.304 23.296-4.672 34.944-6.976 7.936-1.536 15.936-3.008 23.744-4.864 27.84-6.912 59.648 11.072 65.344 39.872 0 0 4.416 21.824 4.416 21.824 4.672 22.976-7.744 46.272-29.888 56.64-6.976 3.264-10.816 10.944-9.216 18.496 1.408 7.616 8 13.248 15.68 13.504 24.448 1.024 44.8 17.792 49.408 40.768 0 0 1.728 7.552 1.728 7.552s112-51.648 112-51.648c6.464-3.008 9.216-10.56 6.208-17.024zM912.512 746.24c-23.936-1.024-45.056-18.176-49.92-42.752-4.864-24.512 7.872-48.384 29.504-58.56 6.464-3.072 11.072-9.664 9.664-16.64 0 0-4.352-21.824-4.352-21.824-1.344-6.848-8.192-11.264-15.296-11.52-23.872-1.088-44.992-18.24-49.856-42.752-4.928-24.512 7.872-48.448 29.504-58.624 6.464-3.008 11.008-9.664 9.664-16.64 0 0-1.152-5.888-1.152-5.888s-3.2-16-3.2-16c-1.344-6.848-8.192-11.2-15.296-11.52-23.936-1.088-44.992-18.24-49.92-42.752-4.864-24.512 7.936-48.384 29.568-58.624 6.4-3.008 11.008-9.664 9.664-16.576 0 0-4.416-21.824-4.416-21.824-1.344-6.912-8.192-11.264-15.232-11.584-1.344 0-810.368 162.24-811.584 162.88-6.464 3.008-11.008 9.536-9.536 16.512 0 0 4.352 21.824 4.352 21.824 1.344 6.848 8.192 11.2 15.232 11.52 23.936 1.024 45.056 18.24 49.92 42.752 4.928 24.512-7.872 48.384-29.504 58.56-6.464 3.008-11.008 9.728-9.664 16.64 0 0 4.352 21.824 4.352 21.824 1.344 6.848 8.192 11.264 15.296 11.584 23.872 1.024 44.992 18.176 49.92 42.688 4.864 24.512-7.936 48.448-29.568 58.624-6.464 3.008-11.008 9.664-9.664 16.64 0 0 4.352 21.824 4.352 21.824 1.408 6.848 8.256 11.2 15.296 11.52 23.936 1.024 45.056 18.176 49.92 42.688s-7.936 48.448-29.504 58.624c-6.464 3.008-11.072 9.664-9.728 16.64 0 0 4.928 24.192 4.928 24.192 1.216 6.016 6.528 10.304 12.544 10.304 0.832 0 813.76-162.944 813.76-162.944 6.976-1.344 11.456-8.128 10.112-15.104 0 0-4.864-24.192-4.864-24.192-1.408-6.848-8.256-11.2-15.296-11.52zM264.64 835.776c-14.016 2.816-27.712-6.272-30.528-20.352 0 0-41.28-206.080-41.28-206.080s-10.112-50.304-10.112-50.304c0 0-3.84-19.392-3.84-19.392-2.688-13.312 5.312-26.304 18.24-30.080 0.576-0.192 1.344-0.384 2.048-0.512 1.664-0.32 3.456-0.512 5.12-0.512 12.16 0 22.976 8.512 25.472 20.864 0 0 19.2 96.256 19.2 96.256s10.816 53.824 10.816 53.824c0 0 13.44 66.816 13.44 66.816s11.84 58.944 11.84 58.944c2.816 14.016-6.336 27.776-20.416 30.528zM733.376 741.76c-14.080 2.816-27.776-6.336-30.592-20.352 0 0-31.808-158.464-31.808-158.464s-23.616-117.376-23.616-117.376c-2.816-14.016 6.336-27.712 20.416-30.528 1.664-0.32 3.392-0.576 5.056-0.576 12.16 0 22.976 8.576 25.472 20.928 0 0 21.12 105.152 21.12 105.152s34.304 170.688 34.304 170.688c2.816 14.016-6.336 27.712-20.352 30.528z"/>
<glyph unicode="" glyph-name="tour-packages" horiz-adv-x="964" d="M951.416 773.15c0 0-7.77 3.614-21.323 9.939-3.433 1.566-7.168 3.373-11.264 5.24-3.915 1.385-8.192 2.831-12.71 4.457-8.915 3.132-18.492 6.325-29.997 9.035-5.481 1.446-11.204 2.891-17.107 4.457-6.024 0.904-12.228 1.867-18.613 2.831-12.348 2.409-25.841 2.53-38.852 3.795-13.553-0.663-26.865-0.301-40.297-2.048-13.312-0.723-26.564-3.674-39.334-5.722-2.771-0.843-5.060-2.47-7.77-3.373 7.168-6.505 15.36-11.445 21.504-19.336 13.673-15.601 24.998-33.31 37.647-48.851 11.264-16.866 23.010-32.949 31.262-50.778 9.698-16.806 15.3-35.479 21.564-52.344 4.337-17.95 9.999-34.153 11.384-50.718 1.024-8.072 1.988-15.842 2.952-23.432 0.241-7.59 0.422-14.878 0.602-21.865 0.783-13.613-0.783-26.985-1.988-38.249-0.602-5.542-1.144-10.782-1.687-15.601-1.084-4.397-2.108-8.433-3.072-12.047-3.735-14.577-5.783-22.95-5.783-22.95s-18.131-1.024-18.131-1.024c0 0-2.952 8.072-8.072 22.227-1.325 3.554-2.771 7.469-4.277 11.686-1.807 3.795-3.795 7.831-5.903 12.228-4.096 8.493-8.614 17.589-14.878 27.708-2.831 4.879-5.843 9.999-8.915 15.3-3.614 4.939-7.349 9.999-11.144 15.24-7.048 10.481-16.504 20.119-24.877 30.238-10.059 9.276-19.155 18.914-29.937 27.226-9.939 8.915-21.323 16.324-31.864 23.913-11.746 6.385-23.672 11.927-36.623 14.637-12.168 3.915-24.636 5.301-33.912 11.023-10.3 3.915-18.071 11.987-26.504 18.974-7.891 7.288-15.541 15.059-23.13 22.709 0 0 51.983-279.793 51.983-279.793s-240.941 0-240.941 0c0 0 43.55 271.48 43.55 271.48-4.879-4.879-9.698-9.818-14.758-14.456-8.373-6.987-16.203-15.059-26.504-18.974-9.276-5.722-21.805-7.108-33.912-11.023-12.89-2.771-24.877-8.252-36.623-14.637-10.541-7.59-21.926-14.999-31.864-23.913-10.782-8.312-19.938-18.010-29.937-27.226-8.373-10.059-17.83-19.757-24.877-30.298-3.795-5.18-7.529-10.3-11.144-15.179-3.072-5.301-6.084-10.421-8.915-15.36-6.264-10.059-10.842-19.095-14.878-27.648-2.108-4.397-4.036-8.433-5.903-12.228-1.506-4.216-2.952-8.192-4.216-11.686-5.18-14.155-8.132-22.167-8.132-22.167s-18.131 0.964-18.131 0.964c0 0-2.108 8.312-5.843 22.889-0.904 3.674-1.928 7.71-3.012 12.107-0.542 4.819-1.144 9.999-1.687 15.601-1.144 11.264-2.771 24.576-1.988 38.189 0.181 7.048 0.422 14.396 0.602 21.926 0.964 7.529 1.928 15.36 2.952 23.432 1.325 16.565 7.048 32.768 11.324 50.658 6.325 16.866 11.927 35.599 21.564 52.405 8.312 17.89 19.998 33.852 31.322 50.778 12.649 15.48 23.974 33.25 37.647 48.851 6.144 7.831 14.336 12.83 21.564 19.336-2.711 0.904-5 2.53-7.77 3.373-12.77 2.108-26.082 5-39.334 5.722-13.432 1.747-26.744 1.446-40.297 2.048-13.011-1.265-26.564-1.325-38.912-3.795-6.325-0.964-12.589-1.867-18.552-2.831-5.903-1.566-11.625-3.012-17.107-4.457-11.505-2.711-21.143-5.903-29.997-9.035-4.518-1.566-8.794-3.072-12.71-4.457-4.096-1.867-7.891-3.614-11.264-5.18-13.613-6.325-21.384-9.999-21.384-9.999s-12.228 13.613-12.228 13.613c0 0 4.397 7.409 12.047 20.36 1.867 3.253 4.036 6.807 6.325 10.722 3.012 3.735 6.264 7.831 9.758 12.168 7.168 8.794 15.42 19.396 25.54 28.431 5.060 4.819 10.36 9.879 15.902 15.059 5.963 4.698 12.168 9.517 18.492 14.517 12.649 10.722 28.070 18.131 43.731 27.708 16.324 7.469 33.431 16.745 52.104 21.745 18.432 6.746 38.008 9.758 57.826 13.673 19.878 1.988 40.358 6.445 61.018 7.77 20.841 2.59 41.442 0.904 60.717-3.373 18.613-6.325 36.382-13.975 50.477-26.082 7.409-5.361 13.975-11.565 20.36-17.107 1.446-1.626 2.59-3.192 3.976-4.759 11.927 6.144 24.877 10.481 39.153 10.481 16.745 0 31.443-6.024 44.695-14.276 2.47 2.831 4.638 5.662 7.228 8.614 6.385 5.542 12.951 11.746 20.36 17.107 14.095 12.107 31.804 19.757 50.477 26.022 19.275 4.337 39.876 6.024 60.717 3.433 20.6-1.325 41.141-5.783 60.958-7.77 19.878-3.915 39.454-6.987 57.886-13.673 18.673-5 35.84-14.276 52.104-21.745 15.661-9.577 31.081-16.986 43.671-27.708 6.385-5 12.589-9.879 18.552-14.517 5.481-5.18 10.782-10.24 15.842-15.059 10.12-9.035 18.432-19.637 25.6-28.431 3.433-4.337 6.746-8.433 9.758-12.228 2.289-3.915 4.397-7.469 6.325-10.662 7.65-13.011 12.047-20.36 12.047-20.36s-12.288-13.613-12.288-13.613zM180.706 357.647c0 0 602.353 0 602.353 0 33.25 0 60.235-26.985 60.235-60.235 0 0 0-301.176 0-301.176 0-33.25-26.985-60.235-60.235-60.235 0 0-602.353 0-602.353 0-33.25 0-60.235 26.985-60.235 60.235 0 0 0 301.176 0 301.176 0 33.25 26.985 60.235 60.235 60.235zM783.059 297.412c0 0-481.882 0-481.882 0s0-60.235 0-60.235c0 0 481.882 0 481.882 0s0 60.235 0 60.235zM180.706-3.765c0 0 602.353 0 602.353 0s0 60.235 0 60.235c0 0-602.353 0-602.353 0s0-60.235 0-60.235zM180.706 116.706c0 0 602.353 0 602.353 0s0 60.235 0 60.235c0 0-602.353 0-602.353 0s0-60.235 0-60.235z"/>
<glyph unicode="" glyph-name="tailored" d="M728.96 557.056c-28.736-52.992-55.808-102.976-55.040-139.392 0.64-32.448 14.656-67.904 30.848-108.928 23.744-60.032 53.376-134.72 48.704-228.416-0.448-8.64-7.424-15.488-15.872-15.488 0 0-193.856 0-193.856 0s0-64.832 0-64.832c0 0 64.256 0 64.256 0s0-64 0-64c0 0-64.256 0-64.256 0s-63.488 0-63.488 0c0 0-64.256 0-64.256 0s0 64 0 64c0 0 64.256 0 64.256 0s0 64.832 0 64.832c0 0-193.856 0-193.856 0-8.384 0-15.36 6.848-15.808 15.488-4.672 93.696 24.896 168.384 48.64 228.416 16.256 41.088 30.272 76.48 30.848 108.928 0.832 36.416-26.304 86.4-55.040 139.392-34.944 64.384-71.040 131.008-71.040 194.56 0 7.68 5.184 14.336 12.48 15.936 59.584 13.504 160.384 48.96 176.896 86.72 0 0 42.112 96.128 42.112 96.128 2.56 5.824 8.192 9.6 14.464 9.6 0 0 84.16 0 84.16 0 6.272 0 11.904-3.776 14.464-9.6 0 0 42.112-96.128 42.112-96.128 16.512-37.76 117.312-73.216 176.896-86.72 7.296-1.6 12.416-8.256 12.416-15.936 0-63.488-36.096-130.176-71.040-194.56z"/>
<glyph unicode="" glyph-name="flights" d="M927.142 528.113c0 0-144.083-249.555-144.083-249.555s0 450.741 0 450.741c0 49.815 0 82.763 0 140.348 0 0 234.436-185.043 234.436-185.043s-90.353-156.491-90.353-156.491zM361.412 86.588c-99.81 0-180.706-53.911-180.706-120.471 0 0-180.706 0-180.706 0 0 75.656 0 73.608 0 180.706 0 0 0 602.353 0 602.353s0 180.706 0 180.706c0 0 180.706 0 180.706 0 0-66.56 80.896-120.471 180.706-120.471s180.706 53.911 180.706 120.471c0 0 180.706 0 180.706 0s0-180.706 0-180.706c0 0 0-602.353 0-602.353 0-73.969 0-80.896 0-180.706 0 0-180.706 0-180.706 0 0 66.56-80.896 120.471-180.706 120.471zM662.95 287.774c0 0-0.301 36.563-0.301 36.563 0 4.096-1.928 8.011-5.18 10.481 0 0-260.457 202.933-260.457 202.933s-1.144 135.228-1.144 135.228c0 1.506-0.301 3.072-0.843 4.578 0 0-24.877 64.512-24.877 64.512-4.397 11.505-20.721 11.565-24.937 0.241 0 0-23.793-64.151-23.793-64.151-0.602-1.506-0.843-3.072-0.843-4.578 0 0 1.144-135.228 1.144-135.228s-257.144-198.776-257.144-198.776c-3.192-2.59-5.060-6.264-5-10.36 0 0 0.301-36.563 0.301-36.563 0.181-9.216 9.457-15.661 18.191-12.469 0 0 245.097 90.594 245.097 90.594s0.783-93.064 0.783-93.064c0 0-83.426-82.402-83.426-82.402-2.53-2.47-3.915-5.722-3.855-9.276 0 0 0.181-24.817 0.181-24.817 0.12-9.336 9.698-15.842 18.432-12.469 0 0 107.159 41.382 107.159 41.382s107.64-43.249 107.64-43.249c8.794-3.554 18.312 2.831 18.251 12.107 0 0-0.241 24.817-0.241 24.817-0.12 3.433-1.446 6.807-4.036 9.336 0 0-84.751 83.787-84.751 83.787s-0.783 93.064-0.783 93.064c0 0 246.543-94.509 246.543-94.509 8.794-3.313 18.071 3.072 17.89 12.288z"/>
<glyph unicode="" glyph-name="packages" d="M942.080-64c0 0-860.16 0-860.16 0-45.248 0-81.92 33.984-81.92 75.84 0 0 0 872.32 0 872.32 0 41.856 36.672 75.84 81.92 75.84 0 0 655.36 0 655.36 0s286.72-224.832 286.72-224.832c0 0 0-723.328 0-723.328 0-41.856-36.672-75.84-81.92-75.84zM122.88 49.792c22.592 0 40.96 16.96 40.96 37.888 0 20.992-18.368 37.952-40.96 37.952s-40.96-16.96-40.96-37.952c0-20.928 18.368-37.888 40.96-37.888zM122.88 201.472c22.592 0 40.96 17.024 40.96 37.952s-18.368 37.888-40.96 37.888c-22.592 0-40.96-16.96-40.96-37.888s18.368-37.952 40.96-37.952zM184.32 884.16c-56.576 0-102.4-42.432-102.4-94.848 0-52.352 45.824-94.784 102.4-94.784s102.4 42.432 102.4 94.784c0 52.416-45.824 94.848-102.4 94.848zM81.92 391.104c0 0 573.44 0 573.44 0s-286.72 303.424-286.72 303.424c0 0-286.72-303.424-286.72-303.424zM942.080 580.736c0 0-163.84 151.744-163.84 151.744s-245.76-113.792-245.76-113.792c0 0 204.8-227.584 204.8-227.584s204.8 0 204.8 0c0 0 0 189.632 0 189.632zM901.12 277.312c0 0-655.36 0-655.36 0-22.592 0-40.96-16.96-40.96-37.888s18.368-37.952 40.96-37.952c0 0 655.36 0 655.36 0 22.656 0 40.96 17.024 40.96 37.952s-18.304 37.888-40.96 37.888zM901.12 125.632c0 0-655.36 0-655.36 0-22.592 0-40.96-16.96-40.96-37.952 0-20.928 18.368-37.888 40.96-37.888 0 0 655.36 0 655.36 0 22.656 0 40.96 16.96 40.96 37.888 0 20.992-18.304 37.952-40.96 37.952zM184 769.984c-11.072 0-20.032 8.512-20.032 19.008s8.96 19.008 20.032 19.008c11.072 0 20.032-8.512 20.032-19.008s-8.96-19.008-20.032-19.008z"/>
<glyph unicode="" glyph-name="group" d="M1023.296 144.256c0 0-11.264-3.904-11.264-3.904-47.232-16.64-91.2-27.712-132.672-35.584 0 0 0 87.424 0 87.424 0 121.344-70.528 224.512-167.744 260.288 25.088 28.8 42.88 65.472 51.264 106.112 0 0 59.264 0 59.264 0 111.104 0 201.536-101.952 201.536-227.264 0 0 0-184.128 0-184.128s-0.384-2.944-0.384-2.944zM765.12 571.84c1.856 12.16 3.328 24.448 3.328 37.184 0 105.92-65.856 194.432-153.728 217.536 25.792 58.496 78.72 99.072 140.608 99.072 86.912 0 157.44-79.424 157.44-177.472 0-94.208-65.344-170.56-147.648-176.32zM668.032 614.080c0-96.384-69.888-174.528-156.16-174.528s-156.224 78.144-156.224 174.528c0 96.384 69.952 174.464 156.224 174.464s156.16-78.080 156.16-174.464zM255.552 612.416c0-12.672 1.472-25.024 3.328-37.12-82.304 5.824-147.648 81.984-147.648 176 0 97.856 70.528 177.152 157.44 177.152 61.888 0 114.816-40.448 140.608-98.88-87.872-23.040-153.728-111.424-153.728-217.152zM261.12 562.112c8.384-40.576 26.176-77.184 51.264-105.984-97.28-35.648-167.744-138.624-167.744-259.776 0 0 0-87.296 0-87.296-41.472 7.808-85.44 18.88-132.672 35.456 0 0-11.264 3.968-11.264 3.968s-0.384 2.88-0.384 2.88c0 0 0 183.872 0 183.872 0 125.056 90.432 226.88 201.536 226.88 0 0 59.264 0 59.264 0zM445.568 427.712c0 0 132.544 0 132.544 0 110.272 0 200-100.288 200-223.488 0 0 0-181.056 0-181.056s-1.152 0-1.152 0c0 0-10.432-5.888-10.432-5.888-5.248-3.008-90.432-49.856-237.44-49.856-75.264 0-166.656 12.288-271.936 49.024 0 0-11.136 3.904-11.136 3.904s-0.384 2.816-0.384 2.816c0 0 0 181.056 0 181.056 0 123.2 89.664 223.488 199.936 223.488z"/>
<glyph unicode="" glyph-name="facebook" d="M340.378 761.481c0-25.737 0-140.766 0-140.766s-101.103 0-101.103 0c0 0 0-172.442 0-172.442s101.103 0 101.103 0c0 0 0-512.137 0-512.137s207.804 0 207.804 0c0 0 0 512.137 0 512.137s139.332 0 139.332 0c0 0 13.039 82.671 19.388 172.988-18.159 0-157.969 0-157.969 0s0 100.284 0 117.828c0 17.681 22.596 41.301 45.056 41.301 22.323 0 69.427 0 113.186 0 0 23.484 0 104.585 0 179.473-58.368 0-124.655 0-153.941 0-218.044 0-212.855-172.578-212.855-198.383z"/>
<glyph unicode="" glyph-name="youtube" d="M815.241 211.046c0 0-58.3 0-58.3 0s0.273 32.631 0.273 32.631c0 14.473 12.356 26.351 27.443 26.351 0 0 3.686 0 3.686 0 15.155 0 27.511-11.878 27.511-26.351 0 0-0.614-32.631-0.614-32.631zM596.787 280.951c-14.746 0-26.829-9.626-26.829-21.299 0 0 0-158.72 0-158.72 0-11.537 12.083-21.231 26.829-21.231 14.814 0 26.897 9.694 26.897 21.231 0 0 0 158.72 0 158.72 0 11.674-12.083 21.299-26.897 21.299zM951.433 369.766c0 0 0-301.943 0-301.943 0-72.363-65.058-131.686-144.657-131.686 0 0-594.739 0-594.739 0-79.667 0-144.725 59.324-144.725 131.686 0 0 0 301.943 0 301.943 0 72.431 65.058 131.618 144.725 131.618 0 0 594.739 0 594.739 0 79.599 0 144.657-59.187 144.657-131.618zM251.631 34.987c0 0-0.068 318.054-0.068 318.054s73.796 0 73.796 0c0 0 0 47.104 0 47.104s-196.54 0.341-196.54 0.341c0 0 0-46.285 0-46.285s61.372-0.205 61.372-0.205c0 0 0-319.010 0-319.010s61.44 0 61.44 0zM472.678 305.801c0 0-61.44 0-61.44 0s0-169.916 0-169.916c0-24.576 1.502-36.864-0.068-41.233-5.052-13.107-27.511-27.034-36.25-1.297-1.502 4.437-0.205 18.091-0.205 41.438 0 0-0.205 171.008-0.205 171.008s-61.167 0-61.167 0c0 0 0.137-168.414 0.137-168.414 0.068-25.805-0.546-45.056 0.273-53.794 1.434-15.36 0.887-33.451 15.77-43.691 27.648-19.319 80.691 2.867 93.935 30.31 0 0-0.137-35.021-0.137-35.021s49.357 0 49.357 0c0 0 0 270.609 0 270.609zM669.286 111.241c0 0-0.137 141.312-0.137 141.312 0 53.862-41.711 86.221-98.509 42.598 0 0 0.341 105.131 0.341 105.131s-61.508-0.137-61.508-0.137c0 0-0.205-362.701-0.205-362.701s50.449 0.614 50.449 0.614c0 0 4.642 22.733 4.642 22.733 64.512-57.139 105.131-18.091 104.926 50.449zM861.798 129.946c0 0-46.217-0.205-46.217-0.205 0-1.775 0-3.755 0-6.007 0 0 0-24.849 0-24.849 0-13.312-11.401-24.030-25.19-24.030 0 0-9.079 0-9.079 0-13.858 0-25.122 10.718-25.122 24.030 0 0 0 2.799 0 2.799s0 27.307 0 27.307c0 0 0 35.226 0 35.226s105.54 0 105.54 0c0 0 0 38.366 0 38.366 0 27.989-0.751 56.047-3.209 72.021-7.509 50.654-81.237 58.709-118.443 32.7-11.742-8.124-20.617-18.91-25.873-33.519-5.188-14.541-7.714-34.475-7.714-59.733 0 0 0-84.241 0-84.241 0-140.151 176.265-120.354 155.307 0.137zM625.323 587.537c3.14-7.441 8.055-13.449 14.814-17.954 6.554-4.642 15.019-6.827 25.122-6.827 8.875 0 16.725 2.321 23.552 7.168 6.758 4.71 12.561 11.742 17.203 21.231 0 0-1.161-23.347-1.161-23.347s68.54 0 68.54 0c0 0 0 281.327 0 281.327s-53.931 0-53.931 0c0 0 0-218.931 0-218.931 0-11.878-10.103-21.504-22.46-21.504-12.288 0-22.528 9.626-22.528 21.504 0 0 0 218.931 0 218.931s-56.252 0-56.252 0c0 0 0-189.713 0-189.713 0-24.166 0.41-40.277 1.229-48.401s2.799-15.974 5.871-23.484zM417.655 746.394c0 26.897 2.321 47.991 6.963 63.215 4.642 15.087 13.039 27.238 25.19 36.523 12.151 9.216 27.58 13.79 46.421 13.79 15.906 0 29.423-3.072 40.892-8.875 11.332-5.939 20.139-13.585 26.214-23.074 6.144-9.557 10.445-19.319 12.698-29.355s3.413-25.327 3.413-45.943c0 0 0-71.134 0-71.134 0-26.078-1.092-45.261-3.14-57.481s-6.622-23.484-13.517-34.133c-6.895-10.513-15.701-18.364-26.419-23.415-10.786-5.052-23.142-7.441-37.137-7.441-15.565 0-28.809 2.048-39.663 6.281-10.854 4.437-19.251 10.923-25.259 19.593-6.007 8.602-10.308 19.251-12.834 31.471-2.526 12.288-3.823 30.788-3.823 55.501 0 0 0 74.479 0 74.479zM471.313 634.709c0-16.043 12.356-28.945 27.17-28.945 15.019 0 27.238 12.902 27.238 28.945 0 0 0 149.641 0 149.641 0 15.906-12.22 28.809-27.238 28.809-14.814 0-27.17-12.902-27.17-28.809 0 0 0-149.641 0-149.641zM281.668 559.070c0 0 64.649 0 64.649 0s0.068 215.586 0.068 215.586c0 0 76.322 184.798 76.322 184.798s-70.588 0-70.588 0c0 0-40.619-137.216-40.619-137.216s-41.233 137.626-41.233 137.626c0 0-69.973 0-69.973 0s81.306-185.207 81.306-185.207c0 0 0.068-215.586 0.068-215.586z"/>
<glyph unicode="" glyph-name="in" d="M1021.007 341.11c0 0 0-365.883 0-365.883s-218.585 0-218.585 0c0 0 0 341.307 0 341.307 0 85.78-31.665 144.226-110.75 144.226-60.416 0-96.335-39.306-112.167-77.509-5.75-13.627-7.247-32.61-7.247-51.673 0 0 0-356.352 0-356.352s-218.663 0-218.663 0c0 0 2.993 578.087 0 637.952 0 0 218.663 0 218.663 0s0-90.427 0-90.427c-0.394-0.63-1.024-1.339-1.418-2.048 0 0 1.418 0 1.418 0s0 2.048 0 2.048c29.066 43.402 80.896 105.472 197.081 105.472 143.911 0 251.668-91.136 251.668-287.114zM124.849 920.694c-74.831 0-123.746-47.577-123.746-110.198 0-61.204 47.498-110.277 120.832-110.277 0 0 1.497 0 1.497 0 76.249 0 123.668 49.073 123.668 110.277-1.418 62.622-47.419 110.198-122.25 110.198zM14.1-24.773c0 0 218.585 0 218.585 0s0 637.952 0 637.952c0 0-218.585 0-218.585 0s0-637.952 0-637.952z"/>
<glyph unicode="" glyph-name="operators" d="M725.312-64c0 0-128 0-128 0s0 0 0 0-170.624 0-170.624 0c0 0 0 0 0 0s-426.688 0-426.688 0c0 0 0 42.688 0 42.688s42.688 0 42.688 0c0 0 0 640 0 640s213.312 0 213.312 0c0 0 0 298.624 0 298.624s-42.688 0-42.688 0c0 0 0 42.688 0 42.688s42.688 0 42.688 0c0 0 469.312 0 469.312 0s42.688 0 42.688 0c0 0 42.688 0 42.688 0s0-42.688 0-42.688c0 0-42.688 0-42.688 0s0-298.624 0-298.624c0 0 213.312 0 213.312 0s0-640 0-640c0 0 42.688 0 42.688 0s0-42.688 0-42.688c0 0-298.688 0-298.688 0zM597.312-22.016c0 0 0 86.016 0 86.016s0 128 0 128c0 0-170.624 0-170.624 0s0-128 0-128c0 0 0-86.016 0-86.016s170.624 0 170.624 0zM256 533.312c0 0-128 0-128 0s0-128 0-128c0 0 128 0 128 0s0 128 0 128zM256 362.688c0 0-128 0-128 0s0-128 0-128c0 0 128 0 128 0s0 128 0 128zM469.312 874.688c0 0-128 0-128 0s0-128 0-128c0 0 128 0 128 0s0 128 0 128zM469.312 704c0 0-128 0-128 0s0-128 0-128c0 0 128 0 128 0s0 128 0 128zM469.312 533.312c0 0-128 0-128 0s0-128 0-128c0 0 128 0 128 0s0 128 0 128zM469.312 362.688c0 0-128 0-128 0s0-128 0-128c0 0 128 0 128 0s0 128 0 128zM682.688 874.688c0 0-128 0-128 0s0-128 0-128c0 0 128 0 128 0s0 128 0 128zM682.688 704c0 0-128 0-128 0s0-128 0-128c0 0 128 0 128 0s0 128 0 128zM682.688 533.312c0 0-128 0-128 0s0-128 0-128c0 0 128 0 128 0s0 128 0 128zM682.688 362.688c0 0-128 0-128 0s0-128 0-128c0 0 128 0 128 0s0 128 0 128zM896 533.312c0 0-128 0-128 0s0-128 0-128c0 0 128 0 128 0s0 128 0 128zM896 362.688c0 0-128 0-128 0s0-128 0-128c0 0 128 0 128 0s0 128 0 128z"/>
<glyph unicode="" glyph-name="park-reviews" horiz-adv-x="964" d="M636.085-19.667c-20.962 0-41.382 1.928-61.259 5.301 0 0-150.769-49.634-150.769-49.634s0 118.121 0 118.121c-74.872 53.73-115.652 126.675-115.652 219.136 0 161.732 146.733 292.924 327.68 292.924s327.68-131.192 327.68-292.924c0-161.792-146.733-292.924-327.68-292.924zM481.882 329.397c-32.226 0-58.368-26.564-58.368-59.272 0-32.768 26.142-59.332 58.368-59.332s58.368 26.564 58.368 59.332c0 32.708-26.142 59.272-58.368 59.272zM636.265 329.397c-32.226 0-58.368-26.564-58.368-59.272 0-32.768 26.142-59.332 58.368-59.332s58.308 26.564 58.308 59.332c0 32.708-26.082 59.272-58.308 59.272zM790.588 329.397c-32.226 0-58.368-26.564-58.368-59.272 0-32.768 26.142-59.332 58.368-59.332s58.368 26.564 58.368 59.332c0 32.708-26.142 59.272-58.368 59.272zM655.36 644.909c-230.46 0-417.551-153.72-423.514-345.148-12.589-5.24-25.841-9.276-39.093-9.276-78.366 0-140.228 71.017-140.228 150.829 0 2.65 0.241 5.24 0.361 7.831-32.226 26.504-52.826 66.982-52.826 112.459 0 51.441 26.443 96.497 66.138 122.097-0.301 3.795-0.542 7.65-0.542 11.565 0 79.812 63.488 144.504 141.854 144.504 5.963 0 11.806-0.482 17.589-1.205 10.782 68.849 69.21 121.495 139.866 121.495 53.308 0 99.689-29.937 123.904-74.21 21.323 13.071 46.261 20.721 72.945 20.721 61.018 0 112.881-39.273 132.939-94.328 71.379-7.529 127.036-68.969 127.036-143.721 0-17.348-3.253-33.792-8.794-49.212-48.791 16.384-101.858 25.6-157.636 25.6z"/>
<glyph unicode="" glyph-name="operators-reviews" horiz-adv-x="960" d="M657.792-24.256c-19.328 0-38.208 1.728-56.512 4.736 0 0-139.072-44.48-139.072-44.48s0 105.92 0 105.92c-68.992 48.128-106.624 113.536-106.624 196.416 0 145.024 135.296 262.592 302.208 262.592s302.208-117.568 302.208-262.592c0-145.024-135.296-262.592-302.208-262.592zM515.008 289.984c-29.248 0-52.992-23.744-52.992-52.992s23.744-52.992 52.992-52.992c29.248 0 52.992 23.744 52.992 52.992s-23.744 52.992-52.992 52.992zM657.984 289.984c-29.824 0-54.016-23.744-54.016-52.992s24.192-52.992 54.016-52.992c29.824 0 54.016 23.744 54.016 52.992s-24.192 52.992-54.016 52.992zM800 289.984c-29.824 0-54.016-23.744-54.016-52.992s24.192-52.992 54.016-52.992c29.824 0 54.016 23.744 54.016 52.992s-24.192 52.992-54.016 52.992zM746.688 606.912c0 0-106.688 0-106.688 0s0-35.328 0-35.328c-24.384 0-48.128-2.368-71.104-6.72 0 0 0 42.048 0 42.048s-106.688 0-106.688 0c0 0 0-80.576 0-80.576-30.080-16.448-57.344-36.928-81.024-60.672 0 0-96.768 0-96.768 0s0-105.92 0-105.92c0 0 25.28 0 25.28 0-16.128-38.272-25.28-79.936-25.28-123.584 0-43.712 9.152-85.312 25.28-123.584 0 0-309.696 0-309.696 0s0 35.264 0 35.264c0 0 35.584 0 35.584 0s0 529.664 0 529.664c0 0 177.728 0 177.728 0s0 247.168 0 247.168c0 0-35.52 0-35.52 0s0 35.328 0 35.328c0 0 35.52 0 35.52 0s391.104 0 391.104 0c0 0 35.584 0 35.584 0s35.584 0 35.584 0c0 0 0-35.328 0-35.328s-35.584 0-35.584 0c0 0 0-247.168 0-247.168s177.792 0 177.792 0c0 0 0-151.168 0-151.168-22.336 12.224-46.080 22.4-71.104 29.888 0 0 0 50.688 0 50.688zM213.312 606.912c0 0-106.624 0-106.624 0s0-105.92 0-105.92c0 0 106.624 0 106.624 0s0 105.92 0 105.92zM213.312 465.664c0 0-106.624 0-106.624 0s0-105.92 0-105.92c0 0 106.624 0 106.624 0s0 105.92 0 105.92zM391.104 889.408c0 0-106.688 0-106.688 0s0-105.92 0-105.92c0 0 106.688 0 106.688 0s0 105.92 0 105.92zM391.104 748.16c0 0-106.688 0-106.688 0s0-105.984 0-105.984c0 0 106.688 0 106.688 0s0 105.984 0 105.984zM391.104 606.912c0 0-106.688 0-106.688 0s0-105.92 0-105.92c0 0 106.688 0 106.688 0s0 105.92 0 105.92zM568.896 889.408c0 0-106.688 0-106.688 0s0-105.92 0-105.92c0 0 106.688 0 106.688 0s0 105.92 0 105.92zM568.896 748.16c0 0-106.688 0-106.688 0s0-105.984 0-105.984c0 0 106.688 0 106.688 0s0 105.984 0 105.984z"/>
<glyph unicode="" glyph-name="tree" horiz-adv-x="896" d="M868.224 656.896c0 77.696-58.816 141.568-134.272 149.44-21.12 57.216-75.904 98.112-140.416 98.112-28.224 0-54.528-7.936-77.056-21.568-25.6 46.016-74.624 77.184-130.88 77.184-74.624 0-136.384-54.784-147.84-126.336-6.080 0.704-12.224 1.216-18.496 1.216-82.816 0-149.952-67.264-149.952-150.272 0-4.096 0.32-8.064 0.64-12.032-41.984-26.624-69.888-73.472-69.888-126.976 0-47.296 21.824-89.408 55.808-116.928-0.128-2.688-0.384-5.376-0.384-8.128 0-83.008 65.344-156.928 148.16-156.928 24.832 0 49.92 12.736 70.528 23.424 13.44-30.208 39.36-64.384 92.352-64.384 0 0 1.6-93.824 0-122.88-3.008-55.232-16.96-114.112-28.544-163.904 0 0 180.224 0 180.224 0s-31.296 126.848-29.504 163.904c4.416 91.008 42.688 155.52 78.272 193.6 10.752-63.232 48.192-73.984 82.048-65.152 75.008 19.584 141.248 59.136 149.056 134.72 57.088 21.248 97.856 76.352 97.856 140.992 0 38.144-14.272 72.832-37.696 99.392 6.336 16.64 9.984 34.624 9.984 53.504zM448 263.68c-15.232-2.752-70.336 54.336-88.768 92.544 20.416-10.432 43.456-16.448 67.968-16.448 6.272 0 55.424 5.056 61.504 5.824-4.672-30.592-26.88-79.36-40.704-81.92z"/>
<glyph unicode="" glyph-name="currency" horiz-adv-x="904" d="M882.989 116.706c0 0-357.557 0-357.557 0s0 0 0 0-207.571 0-207.571 0c0 0 0 0 0 0s-297.321 0-297.321 0c-11.324 0-20.54 8.975-20.54 20.058 0 0 0 160.648 0 160.648 0 11.083 9.216 20.058 20.54 20.058 57.525 5.12 102.641 52.826 102.641 110.472 0 0 0 80.294 0 80.294s0 0 0 0 0 80.294 0 80.294c0 0 0 0 0 0s0 50.236 0 50.236c0 177.393 147.155 321.235 328.584 321.235s328.584-143.842 328.584-321.235c0 0 0-30.118 0-30.118s0 0 0 0 0-150.588 0-150.588c0 0 0 0 0 0s0-30.118 0-30.118c0-57.645 45.116-105.352 102.641-110.472 11.324 0 20.54-8.975 20.54-20.058 0 0 0-160.648 0-160.648 0-11.083-9.216-20.058-20.54-20.058zM421.647-64c-66.56 0-120.471 53.911-120.471 120.471 0 0 240.941 0 240.941 0 0-66.56-53.911-120.471-120.471-120.471z"/>
<glyph unicode="" glyph-name="leon" d="M1024 457.984c0 0-48.512 166.784-48.512 166.784s-111.872 1.984-111.872 1.984c0 0 85.76 95.040 85.76 95.040s-70.848 81.408-70.848 81.408c0 0-69.056-21.312-69.056-21.312s13.12 98.944 13.12 98.944c0 0-78.336 52.288-78.336 52.288s-82.048-75.584-82.048-75.584c0 0-16.832 102.144-16.832 102.144s-143.616 0-143.616 0c0 0-9.28-109.952-9.28-109.952s-57.856 109.952-57.856 109.952c0 0-89.536-26.56-89.536-26.56s12.416-112.448 12.416-112.448c0 0-94.528 96.96-94.528 96.96s-123.072-96.96-123.072-96.96c0 0 67.2-100.864 67.2-100.864s-115.712 3.392-115.712 3.392c0 0-91.392-206.976-91.392-206.976s151.104-42.688 151.104-42.688c0 0-151.104-65.984-151.104-65.984s55.936-221.12 55.936-221.12c0 0 95.168 42.624 95.168 42.624s-47.552-106.624-47.552-106.624c0 0 103.552-108.608 103.552-108.608s111.872 52.352 111.872 52.352c0 0-27.968-108.672-27.968-108.672s141.76-21.376 141.76-21.376c0 0 33.6 83.456 33.6 83.456s33.536-83.456 33.536-83.456c0 0 212.672 23.296 212.672 23.296s-24.256 116.352-24.256 116.352c0 0 113.792-69.888 113.792-69.888s98.816 96.96 98.816 96.96c0 0-46.528 77.632-46.528 77.632s123.072 19.392 123.072 19.392c0 0 46.528 143.68 46.528 143.68s-130.56 67.84-130.56 67.84c0 0 130.56 46.592 130.56 46.592zM784.448 602.816c10.368-44.672 2.944-115.648 0-174.144-1.984-36.928-79.104-98.112-97.408-147.712-32.384-56.96 31.104-56.96-2.496-119.040-30.464-64.256-109.632-68.864-154.368-65.856-44.736-3.008-123.904 1.6-154.368 65.856-33.6 62.080 29.888 62.080-2.496 119.040-18.24 49.6-95.424 110.784-97.344 147.712-2.944 58.56-10.432 129.536 0 174.144-44.608 21.952-46.528 90.816-30.4 116.352 19.2 30.464 63.616 35.456 99.264 11.2 19.904-13.632 32.576-33.6 36.672-53.824 29.248 2.048 94.464 3.904 148.672-12.672 54.272 16.576 119.424 14.656 148.672 12.672 4.224 20.224 16.768 40.192 36.736 53.824 35.584 24.256 80 19.264 99.264-11.2 16.064-25.536 15.168-106.944-30.4-116.352z"/>
<glyph unicode="" glyph-name="earth" d="M874.048 810.048c96.704-96.704 149.952-225.28 149.952-362.048s-53.248-265.344-149.952-362.048c-96.704-96.704-225.28-149.952-362.048-149.952s-265.344 53.248-362.048 149.952c-96.704 96.704-149.952 225.28-149.952 362.048s53.248 265.344 149.952 362.048c96.704 96.704 225.28 149.952 362.048 149.952s265.344-53.248 362.048-149.952zM828.8 131.2c63.040 63.104 104.96 141.632 122.24 227.072-13.44-19.84-26.368-27.2-34.304 17.216-8.256 72.384-74.752 26.112-116.544 51.84-44.032-29.632-142.912 57.664-126.080-40.832 25.92-44.416 139.968 59.456 83.136-34.496-36.288-65.664-132.672-210.944-120.128-286.272 1.6-109.76-112.128-22.912-151.296 13.504-26.368 72.96-8.96 200.384-77.888 236.096-74.816 3.264-139.008 10.048-168 93.696-17.472 59.776 18.56 148.864 82.688 162.624 93.824 58.944 127.36-69.056 215.36-71.424 27.328 28.544 101.824 37.696 108.032 69.696-57.792 10.24 73.216 48.576-5.568 70.4-43.456-5.12-71.488-45.056-48.384-78.976-84.224-19.584-86.912 121.92-167.872 77.312-2.048-70.592-132.224-22.912-45.056-8.576 29.952 13.056-48.832 51.008-6.272 44.096 20.928 1.152 91.328 25.856 72.256 42.432 39.232 24.32 72.192-58.304 110.528 1.856 27.712 46.272-11.584 54.848-46.336 31.36-19.584 21.952 34.56 69.248 82.368 89.728 15.936 6.848 31.104 10.56 42.752 9.472 24.064-27.776 68.544-32.576 70.848 3.392-59.584 28.48-125.248 43.584-193.28 43.584-97.6 0-190.464-31.040-267.328-88.384 20.672-9.472 32.384-21.248 12.48-36.288-15.424-46.080-78.144-107.904-133.184-99.136-28.608-49.28-47.424-103.616-55.488-160.512 46.144-15.296 56.768-45.44 46.848-55.552-23.488-20.48-37.952-49.536-45.376-81.344 14.976-91.84 58.176-176.448 125.248-243.584 84.608-84.608 197.12-131.2 316.8-131.2s232.192 46.592 316.8 131.2z"/>
<glyph unicode="" glyph-name="pie" horiz-adv-x="964" d="M957.018 488.117c-4.939-5.542-11.806-8.734-19.034-8.734 0 0-428.454 0-428.454 0-7.59 0-14.938 3.554-19.817 9.698 0 0-273.95 343.221-273.95 343.221-4.638 5.783-6.686 13.312-5.722 20.841 0.964 7.409 4.879 14.155 10.782 18.432 79.932 57.826 173.417 88.425 270.517 88.425 244.013 0 451.524-198.295 472.365-451.403 0.602-7.469-1.807-14.938-6.686-20.48zM421.647-60.747c-236.785 27.467-421.647 236.966-421.647 490.797 0 132.819 50.056 257.566 140.89 351.112 5.12 5.301 12.168 8.252 19.396 7.77 7.228-0.361 13.975-3.855 18.613-9.638 0 0 242.748-304.188 242.748-304.188s0-535.853 0-535.853zM481.882 416.617c0 0 439.176 0 439.176 0 7.228 0 14.095-3.192 18.974-8.734 4.939-5.542 7.349-13.011 6.746-20.48-20.6-250.458-224.196-446.584-464.896-450.68 0 0 0 479.895 0 479.895z"/>
<glyph unicode="" glyph-name="flag" horiz-adv-x="960" d="M768 787.712c76.48 0 145.088 41.6 192 73.088 0 0 0-595.712 0-595.712-46.912-31.488-115.52-73.088-192-73.088s-145.088 22.656-192 54.144c-46.912 31.488-115.52 54.144-192 54.144s-145.088-38.912-192-70.4c0 0 0 595.712 0 595.712 46.912 31.488 115.52 70.4 192 70.4s145.088-22.656 192-54.144c46.912-31.488 115.52-54.144 192-54.144zM64 960c35.328 0 64-28.672 64-64 0 0 0-960 0-960s-128 0-128 0c0 0 0 960 0 960 0 35.328 28.672 64 64 64z"/>
<glyph unicode="" glyph-name="plane" d="M1014.144 833.216c15.616 46.784 12.672 82.816-8.768 108.16-25.28 21.44-61.376 24.32-108.16 8.768-46.72-15.616-88.64-41.856-125.632-78.912 0 0-116.928-116.864-116.928-116.864s-485.824 116.16-485.824 116.16c-7.808 2.432-15.104 0.448-21.952-5.888 0 0-93.504-93.504-93.504-93.504-5.376-5.376-7.552-11.904-6.592-19.712 1.472-7.808 5.632-13.632 12.416-17.536 0 0 371.2-203.84 371.2-203.84s-189.248-189.248-189.248-189.248c0 0-141.76 38.72-141.76 38.72-0.96 0.448-2.88 0.704-5.824 0.704-6.848 0-12.416-2.176-16.832-6.528 0 0-70.080-70.912-70.080-70.912-4.928-5.824-7.104-11.904-6.592-18.24 0.96-7.808 4.096-13.376 9.472-16.832 0 0 184.128-138.048 184.128-138.048s138.112-184.128 138.112-184.128c4.352-5.376 10.176-8.512 17.536-9.472 0 0 1.472 0 1.472 0 6.784 0 12.416 2.112 16.768 6.528 0 0 70.144 70.144 70.144 70.144 6.336 6.848 8.256 14.336 5.824 22.656 0 0-38.72 141.76-38.72 141.76s189.248 189.184 189.248 189.184c0 0 203.84-371.136 203.84-371.136 2.944-6.336 8.064-10.24 15.36-11.712 1.472-0.448 3.136-0.704 5.12-0.704 5.824 0 10.432 1.472 13.888 4.352 0 0 93.504 70.144 93.504 70.144 8.256 6.848 11.2 14.848 8.768 24.128 0 0-116.864 508.48-116.864 508.48s117.632 117.632 117.632 117.632c36.992 37.056 63.296 78.976 78.848 125.696z"/>
<glyph unicode="" glyph-name="copy" d="M863.963 256c-45.129 0-85.87-18.725-114.981-48.859 0 0-431.031 215.552-431.031 215.552 1.317 8.265 2.048 16.677 2.048 25.307s-0.731 17.042-2.048 25.307c0 0 431.031 215.479 431.031 215.479 29.111-30.062 69.851-48.786 114.981-48.786 88.43 0 160.037 71.607 160.037 159.963 0 88.43-71.607 160.037-160.037 160.037-88.357 0-159.963-71.607-159.963-160.037 0-8.558 0.731-17.042 2.048-25.307 0 0-431.031-215.479-431.031-215.479-29.111 30.062-69.851 48.786-115.054 48.786-88.357 0-159.963-71.607-159.963-159.963s71.607-159.963 159.963-159.963c45.202 0 85.943 18.725 115.054 48.786 0 0 431.031-215.479 431.031-215.479-1.317-8.265-2.048-16.75-2.048-25.307 0-88.43 71.607-160.037 159.963-160.037 88.43 0 160.037 71.607 160.037 160.037 0 88.357-71.607 159.963-160.037 159.963z"/>
<glyph unicode="" glyph-name="untitled" horiz-adv-x="640" d="M279.872-63.936c98.752 0 182.208 35.392 253.12 106.24 70.976 72.192 107.136 155.776 107.136 250.688 0 101.952-32 185.472-96 252.096-64 66.56-147.456 99.136-250.368 99.136-11.136 0-26.432-1.408-44.48-5.696 0 0 13.888 101.952 13.888 101.952s336.576 0 336.576 0c0 0 0 219.584 0 219.584s-525.76 0-525.76 0c0 0-73.728-539.648-73.728-539.648s115.456-56.64 115.456-56.64c57.024 43.904 114.048 65.152 173.888 65.152 79.296 0 126.592-52.416 126.592-135.936 0-73.664-62.592-137.408-136.32-137.408-90.432 0-180.864 25.472-274.048 75.072 0 0 0-243.584 0-243.584 93.184-33.984 183.616-51.008 274.048-51.008z"/>
<glyph unicode="" glyph-name="boating" horiz-adv-x="960" d="M875.264 76.032c-33.6-10.56-70.656-16.064-112.576-16.576-60.096-0.896-119.424 7.808-178.752 16.64-77.568 11.776-154.88 23.936-233.664 16.192 91.904 8.768 198.016-37.12 284.032-63.552 92.864-28.416 190.976-51.52 288.896-41.472 4.864 0.384 8.96 0.832 12.288 1.024 0 0 0.192 0 0.192 0 2.304 0.256 3.008-3.712 0.96-4.864 0 0-0.192-0.128-0.192-0.128-58.048-34.624-127.616-48.704-195.072-47.168-80.576 1.728-159.296 22.080-236.736 42.368-134.4 35.136-282.752 65.088-417.92 16.896-4.544-1.792-8.512-3.264-11.648-4.544-2.112-0.832-3.648 2.624-1.92 4.544 2.56 2.752 5.888 5.888 9.792 9.728 36.928 35.904 84.672 59.776 134.208 73.344 3.456 0.96 22.976 8.064 25.536 6.016 0 0-238.72 191.296-238.72 191.296-7.872 6.272-3.328 18.688 6.784 18.688 0 0 938.432 0 938.432 0 7.616 0 12.928-7.488 9.984-14.464 0 0-83.904-203.968-83.904-203.968zM593.088 805.568c0 10.816 14.656 14.592 20.096 5.184 0 0 268.736-463.36 268.736-463.36s-288.832 0-288.832 0c0 0 0 458.176 0 458.176zM105.984 537.984c0 229.568 186.688 416.32 419.2 422.016 6.080 0.128 11.008-4.672 11.008-10.56 0 0 0-602.048 0-602.048s0-0.064 0-0.064c0 0-383.872 0-383.872 0-29.632 57.28-46.336 122.048-46.336 190.656z"/>
<glyph unicode="" glyph-name="camping" horiz-adv-x="1152" d="M1120.64-64c0 0-1089.28 0-1089.28 0-17.344 0-31.36 13.12-31.36 29.312 0 0 0 23.424 0 23.424 0 16.192 14.016 29.312 31.36 29.312 0 0 1089.28 0 1089.28 0 17.344 0 31.36-13.12 31.36-29.312 0 0 0-23.424 0-23.424 0-16.192-14.016-29.312-31.36-29.312zM883.136 55.552c-11.584 0-23.232 1.856-34.112 5.76-171.968 61.056-238.080 249.792-261.376 349.504-2.88 12.224-20.48 12.224-23.36 0-23.488-99.84-89.472-288.576-261.44-349.504-10.88-3.904-22.528-5.76-34.112-5.76 0 0-213.504 0-213.504 0s469.376 700.096 469.376 700.096c0 0-95.168 141.952-95.168 141.952-12.736 19.008-7.296 44.416 12.096 56.896 19.392 12.416 45.376 7.104 58.048-11.84 0 0 75.2-112.192 75.2-112.192s1.216 1.728 1.216 1.728c0 0 0.96-1.536 0.96-1.536s74.944 112 74.944 112c12.736 18.944 38.72 24.256 58.112 11.84 19.392-12.48 24.768-37.888 12.096-56.896 0 0-94.976-141.568-94.976-141.568s469.568-700.48 469.568-700.48c0 0-213.568 0-213.568 0z"/>
<glyph unicode="" glyph-name="birding" horiz-adv-x="1088" d="M1070.592 403.456c-10.944-11.456-25.472-17.152-40.064-17.152-14.016 0-28.032 5.248-38.848 15.872 0 0-13.184 12.928-13.184 12.928s-1.408-9.152-1.408-9.152c0 0-447.36 446.272-447.36 446.272s-446.528-457.28-446.528-457.28c-21.376-12.608-48.832-10.624-67.136 7.872-21.824 21.952-21.824 57.6 0 79.616 0 0 440.896 444.8 440.896 444.8 21.12 21.248 49.152 32.96 78.912 32.96 29.824 0 57.856-11.712 78.976-32.96 0 0 454.528-444.16 454.528-444.16 22.080-21.696 22.656-57.28 1.216-79.616zM967.36 340.416c0 0-55.232-370.176-55.232-370.176 0-19.008-15.616-34.432-34.944-34.432 0 0-656.384 0-656.384 0-19.328 0-35.008 15.424-35.008 34.432 0 0-58.624 393.152-58.624 393.152s402.24 409.152 402.24 409.152c0 0 437.952-432.128 437.952-432.128zM548.416 167.232c76.16 0 137.92 62.336 137.984 139.2 0 76.928-61.824 139.2-137.984 139.2-76.224 0-137.984-62.272-137.984-139.2 0-76.864 61.76-139.2 137.984-139.2z"/>
<glyph unicode="" glyph-name="romantic" horiz-adv-x="1152" d="M1135.872 384.576c-32.96 94.592-56.96 158.144-149.952 158.144-3.456 0-67.52-0.064-70.912-0.32-5.056-0.256 50.56-0.768 45.568-1.408 36.928 110.464 15.104 238.848-66.432 327.424-111.872 121.6-293.184 121.856-405.44 0.896-112.192 120.96-293.44 120.64-405.376-0.96-112.192-121.856-112.192-319.552 0-441.472 5.44-5.952 271.616-293.824 369.664-399.872 19.776-21.376 51.712-21.376 71.488 0 21.888 23.744-8.192 56.704 25.728 93.376 0.192-0.576 61.12-1.216 61.312-1.856 0 0-58.88-5.056-56.064-13.12 11.648-33.28 41.536-118.464 41.536-118.464 10.624-30.528 38.016-51.008 68.096-51.008 8.768 0 17.344 1.664 25.6 5.056 0 0 51.904 21.12 51.904 21.12 100.736 41.088 258.624 105.536 262.4 107.136 116.096 47.68 174.784 189.184 130.88 315.328zM976.384 151.040c-4.288-1.728-161.664-65.92-262.144-106.944 0 0-44.736-18.24-44.736-18.24s-43.392 123.776-43.392 123.776c-34.624 98.752-72.192 206.016-73.28 209.152-28.16 80.96 9.536 171.84 84.096 202.496 16.448 6.784 33.664 10.24 51.072 10.24 59.456 0 113.728-40.64 134.976-101.056 0 0 14.336-40.512 14.336-40.512s37.44 15.168 37.44 15.168c16.256 6.656 33.28 10.048 50.56 10.048 59.712 0 114.048-40.832 135.232-101.568 28.16-80.96-9.536-171.84-84.16-202.56z"/>
<glyph unicode="" glyph-name="cultural" horiz-adv-x="1152" d="M802.816-64c-144.576 0-268.608 128.512-321.664 311.68 47.040 24.256 89.792 60.992 126.336 107.584 12.096-10.816 30.912-17.856 52.224-17.856 36.608 0 66.24 44.096 66.24 69.376s-29.632 22.144-66.24 22.144c-1.408 0-2.688-0.192-4.096-0.256 28.224 51.84 50.368 110.72 64.192 174.784 26.752-1.728 54.336-2.88 83.008-2.88 117.76 0 222.464 15.744 290.368 40.192 7.744 2.816 16.256 2.112 23.488-1.792 7.232-4.032 12.544-10.944 14.528-19.072 13.376-54.080 20.8-112.32 20.8-173.184 0-282.048-156.352-510.72-349.184-510.72zM660.032 115.648c0-10.56 1.344-20.672 3.584-30.528 0.64-2.688 2.56-4.864 5.184-5.76 2.56-0.832 5.376-0.32 7.424 1.472 27.2 23.488 73.472 39.040 126.592 39.040 53.056 0 99.328-15.552 126.528-39.040 2.112-1.792 4.928-2.304 7.488-1.472 2.56 0.896 4.48 3.072 5.12 5.76 2.24 9.856 3.648 19.968 3.648 30.528 0 80.896-63.936 146.432-142.784 146.432s-142.784-65.536-142.784-146.432zM945.92 428.928c-36.608 0-66.304 3.136-66.304-22.144s29.696-69.376 66.304-69.376c36.608 0 66.24 20.48 66.24 45.76s-29.632 45.76-66.24 45.76zM349.184 253.504c-192.832 0-349.184 228.672-349.184 510.784 0 60.864 7.424 119.040 20.8 173.12 1.984 8.128 7.296 15.040 14.528 19.072 4.288 2.304 9.088 3.52 13.824 3.52 3.264 0 6.528-0.576 9.664-1.664 67.904-24.448 172.608-40.192 290.368-40.192 117.824 0 222.528 15.744 290.368 40.192 3.2 1.088 6.464 1.664 9.728 1.664 4.8 0 9.536-1.216 13.824-3.52 7.232-3.968 12.48-10.88 14.528-19.072 13.376-54.080 20.736-112.256 20.736-173.12 0-282.112-156.288-510.784-349.184-510.784zM206.080 746.56c-36.608 0-66.24-20.48-66.24-45.76s29.632-45.824 66.24-45.824c36.608 0 66.304-3.072 66.304 22.208s-29.696 69.376-66.304 69.376zM222.656 531.328c-2.112 1.792-4.928 2.304-7.488 1.472-2.56-0.896-4.544-3.072-5.12-5.76-2.24-9.856-3.648-19.968-3.648-30.528 0-80.832 63.936-146.432 142.784-146.432s142.848 65.6 142.784 146.432c0 10.56-1.344 20.672-3.584 30.528-0.64 2.688-2.624 4.864-5.184 5.76s-5.376 0.32-7.424-1.472c-27.2-23.424-73.472-39.040-126.592-39.040-53.056 0-99.328 15.616-126.528 39.040zM492.288 746.56c-36.608 0-66.24-44.096-66.24-69.376s29.632-22.208 66.24-22.208c36.608 0 66.304 20.544 66.304 45.824s-29.696 45.76-66.304 45.76z"/>
<glyph unicode="" glyph-name="auto" d="M512 960c-282.752 0-512-229.248-512-512s229.248-512 512-512c282.752 0 512 229.248 512 512s-229.248 512-512 512zM512 832c166.592 0 307.392-107.328 360.512-256 0 0-721.024 0-721.024 0 53.184 148.672 193.92 256 360.512 256zM512 384c-35.328 0-64 28.608-64 64s28.672 64 64 64c35.392 0 64-28.608 64-64s-28.608-64-64-64zM128 448c174.848 0 316.544-168.512 319.488-377.472-180.992 30.976-319.488 187.84-319.488 377.472zM576.512 70.528c3.008 208.96 144.64 377.472 319.488 377.472 0-189.632-138.496-346.496-319.488-377.472z"/>
<glyph unicode="" glyph-name="night-auto" horiz-adv-x="2048" d="M2000.691 247.194c0 0-62.874 0-62.874 0-15.462 85.811-43.11 203.162-87.040 265.421-205.21 291.123-462.95 447.386-786.944 447.386-209.818 0-141.824-22.426-212.992-68.608-9.626-6.246-37.888-24.576-114.483-193.024-111.718-1.843-407.245-24.064-548.966-198.758-71.168-87.757-99.533-181.965-110.387-252.314 0 0-29.594 0-29.594 0-26.214 0-47.411-23.245-47.411-51.917 0-28.57 21.197-51.814 47.411-51.814 0 0 23.654 0 23.654 0 0.205-2.867 0.41-4.915 0.41-5.632 2.56-26.214 22.938-46.285 47.104-46.285 0 0 59.597 0 59.597 0 36.659-91.443 120.013-155.648 217.088-155.648 96.973 0 180.326 64.205 217.088 155.648 0 0 699.494 0 699.494 0 36.659-91.443 120.013-155.648 217.088-155.648 96.973 0 180.429 64.205 216.986 155.648 0 0 159.744 0 159.744 0 0.41 0 0.717 0 0.922 0 26.214 0 47.514 23.142 47.514 51.814 0 0 46.592 0 46.592 0 26.112 0 47.309 23.245 47.309 51.917s-21.197 51.814-47.309 51.814zM395.264 39.731c-78.438 0-142.234 69.734-142.234 155.648 0 85.811 63.795 155.648 142.234 155.648s142.336-69.837 142.336-155.648c0-85.914-63.898-155.648-142.336-155.648zM1031.168 643.072c0-14.336-10.547-26.010-23.757-26.010 0 0-163.533 0-163.533 0-8.090 0-15.667 4.71-19.968 12.288-4.403 7.578-4.813 16.998-1.229 24.986 17.408 39.117 48.845 106.906 63.898 120.934 50.176 34.918-54.067 51.507 96.666 51.507 8.192 0 16.486-0.205 24.781-0.307 12.8-0.307 23.040-11.878 23.040-26.010 0 0 0.102-157.389 0.102-157.389s0 0 0 0zM1078.682 643.072c0 0 0 150.118 0 150.118 0 7.373 2.97 14.438 7.885 19.354 5.12 4.915 11.776 7.373 18.534 6.451 166.912-21.504 295.322-81.92 343.552-161.587 4.915-7.987 5.222-18.125 1.126-26.624-3.994-8.397-12.186-13.722-20.89-13.722 0 0-326.656 0-326.656 0-12.902 0-23.552 11.674-23.552 26.010zM1528.934 39.731c-78.438 0-142.336 69.734-142.336 155.648 0 85.811 63.898 155.648 142.336 155.648s142.234-69.837 142.234-155.648c0-85.914-63.898-155.648-142.234-155.648z"/>
<glyph unicode="" glyph-name="email" horiz-adv-x="896" d="M822.336-64c0 0-750.656 0-750.656 0-39.424 0-71.68 34.112-71.68 75.84 0 0 0 530.944 0 530.944s127.552 126.656 127.552 126.656c0 0 0 86.912 0 86.912 0 41.728 32.256 75.84 71.616 75.84 0 0 126.976 0 126.976 0s121.856 127.808 121.856 127.808c0 0 121.856-127.808 121.856-127.808s124.928 0 124.928 0c39.424 0 71.68-34.112 71.68-75.84 0 0 0-86.912 0-86.912s127.552-126.656 127.552-126.656c0 0 0-530.944 0-530.944 0-41.728-32.256-75.84-71.68-75.84zM712.384-0.064c0 0-200.896 201.536-200.896 201.536s-129.024 0-129.024 0c0 0-206.848-201.536-206.848-201.536s536.768 0 536.768 0zM351.488 321.28c0 0 32.832-61.888 32.832-61.888s127.36-3.968 127.36-3.968c0 0 39.232 65.856 39.232 65.856s-199.424 0-199.424 0zM573.952 353.152c0 0 90.112 75.904 90.112 75.904s-436.8 0-436.8 0c0 0 94.784-75.904 94.784-75.904s251.904 0 251.904 0zM127.552 592.128c0 0-53.76-49.344-53.76-49.344s53.76-53.056 53.76-53.056c0 0 0 102.4 0 102.4zM63.808 504.896c0 0 0-505.024 0-505.024s258.752 239.552 258.752 239.552c0 0-258.752 265.472-258.752 265.472zM448 910.72c0 0-71.68-78.528-71.68-78.528s139.776 0 139.776 0c0 0-68.096 78.528-68.096 78.528zM704.64 732.352c0 19.008-17.92 37.952-35.84 37.952 0 0-443.584-1.984-443.584-1.984-21.504 0-35.84-15.168-35.84-37.952 0 0 0-270.976 0-270.976s25.664-20.544 25.664-20.544c0 0 0 28.096 0 28.096s465.92 0 465.92 0c0 0 0-23.68 0-23.68s23.68 19.904 23.68 19.904c0 0 0 269.184 0 269.184zM766.464 592.128c0 0 0-98.624 0-98.624s53.76 49.28 53.76 49.28c0 0-53.76 49.344-53.76 49.344zM830.144 504.896c0 0-256.704-265.472-256.704-265.472s256.704-239.552 256.704-239.552c0 0 0 505.024 0 505.024zM215.040 580.736c0 0 465.92 0 465.92 0s0-37.952 0-37.952c0 0-465.92 0-465.92 0s0 37.952 0 37.952zM215.040 694.528c0 0 465.92 0 465.92 0s0-37.952 0-37.952c0 0-465.92 0-465.92 0s0 37.952 0 37.952z"/>
<glyph unicode="" glyph-name="article" horiz-adv-x="1170" d="M1076.663-64c0 0-46.811 0-46.811 0-17.115 0-32.987 4.901-46.811 12.946-13.824-8.046-29.696-12.946-46.811-12.946 0 0-842.606 0-842.606 0-51.712 0-93.623 41.691-93.623 93.111 0 0 0 837.778 0 837.778 0 51.419 41.911 93.111 93.623 93.111 0 0 842.606 0 842.606 0 51.712 0 93.623-41.691 93.623-93.111 0 0 0-791.259 0-791.259s0-46.519 0-46.519c0 0 46.811 0 46.811 0s0 698.149 0 698.149c0 0 0 93.111 0 93.111 0 25.746 20.992 46.519 46.811 46.519s46.811-20.773 46.811-46.519c0 0 0-93.111 0-93.111s0-698.149 0-698.149c0-51.419-41.911-93.111-93.623-93.111zM468.114 820.37c0 25.746-20.992 46.519-46.811 46.519 0 0-280.869 0-280.869 0-25.819 0-46.811-20.773-46.811-46.519 0 0 0-186.222 0-186.222 0-25.673 20.992-46.519 46.811-46.519 0 0 280.869 0 280.869 0 25.819 0 46.811 20.846 46.811 46.519 0 0 0 186.222 0 186.222zM889.417 866.889c0 0-187.246 0-187.246 0-25.893 0-46.811-20.773-46.811-46.519s20.919-46.592 46.811-46.592c0 0 187.246 0 187.246 0 25.819 0 46.811 20.846 46.811 46.592s-20.992 46.519-46.811 46.519zM889.417 680.741c0 0-280.869 0-280.869 0-25.819 0-46.811-20.846-46.811-46.592 0-25.673 20.992-46.519 46.811-46.519 0 0 280.869 0 280.869 0 25.819 0 46.811 20.846 46.811 46.519 0 25.746-20.992 46.592-46.811 46.592zM889.417 494.519c0 0-748.983 0-748.983 0-25.819 0-46.811-20.846-46.811-46.519s20.992-46.519 46.811-46.519c0 0 748.983 0 748.983 0 25.819 0 46.811 20.846 46.811 46.519s-20.992 46.519-46.811 46.519zM889.417 308.37c0 0-748.983 0-748.983 0-25.819 0-46.811-20.846-46.811-46.519 0-25.746 20.992-46.592 46.811-46.592 0 0 748.983 0 748.983 0 25.819 0 46.811 20.846 46.811 46.592 0 25.673-20.992 46.519-46.811 46.519z"/>
<glyph unicode="" glyph-name="next" horiz-adv-x="1229" d="M1210.778 402.125c11.981 12.8 18.022 29.594 18.022 46.080 0 16.691-6.042 33.485-18.022 45.978l-416.256 446.771c-23.654 25.293-62.157 25.293-86.221 0l-57.651-61.85c-23.552-25.293-23.552-66.662 0-92.467l214.221-229.683h-804.045c-33.587 0-60.826-29.491-60.826-65.331v-87.142c0-36.045 27.034-65.331 60.826-65.331h804.25l-214.221-229.888c-23.552-25.293-23.552-66.867 0-92.467l57.651-61.85c23.654-25.293 62.362-25.293 86.221 0l416.051 447.181z"/>
</font>
</defs>
</svg>
